<mxfile host="65bd71144e">
    <diagram name="HOME NETWORK" id="bfe91b75-5d2c-26a0-9c1d-138518896778">
        <mxGraphModel dx="3862" dy="1220" grid="1" gridSize="10" guides="1" tooltips="1" connect="1" arrows="1" fold="1" page="1" pageScale="1" pageWidth="1169" pageHeight="827" background="#ffffff" math="0" shadow="0">
            <root>
                <mxCell id="0"/>
                <mxCell id="1" parent="0"/>
                <mxCell id="7c3789c024ecab99-79" value="&lt;div style=&quot;font-size: 36px;&quot;&gt;OCI Tokyo Region&lt;/div&gt;" style="rounded=1;whiteSpace=wrap;html=1;shadow=0;comic=0;strokeColor=#036897;strokeWidth=2;fillColor=none;fontFamily=Verdana;fontSize=36;fontColor=#6881B3;align=center;arcSize=11;verticalAlign=top;" parent="1" vertex="1">
                    <mxGeometry x="1580" y="622.95" width="734.23" height="810.05" as="geometry"/>
                </mxCell>
                <mxCell id="9Yv24LjLBe8T0jyLMU3n-17" value="" style="group" parent="1" vertex="1" connectable="0">
                    <mxGeometry x="176.5" y="223" width="2089.62" height="1210" as="geometry"/>
                </mxCell>
                <mxCell id="114" value="" style="rounded=0;whiteSpace=wrap;html=1;fontSize=35;fillColor=none;dashed=1;" parent="9Yv24LjLBe8T0jyLMU3n-17" vertex="1">
                    <mxGeometry x="-100" y="590" width="1120" height="520" as="geometry"/>
                </mxCell>
                <mxCell id="7c3789c024ecab99-78" value="Home Network" style="rounded=1;whiteSpace=wrap;html=1;shadow=0;comic=0;strokeColor=#036897;strokeWidth=2;fillColor=none;fontFamily=Verdana;fontSize=36;fontColor=#6881B3;align=center;arcSize=11;verticalAlign=top;" parent="9Yv24LjLBe8T0jyLMU3n-17" vertex="1">
                    <mxGeometry x="-115" y="400.36694371064397" width="1152.6289451652417" height="806.1861847602927" as="geometry"/>
                </mxCell>
                <mxCell id="7c3789c024ecab99-1" value="PC" style="fontColor=#0066CC;verticalAlign=top;verticalLabelPosition=bottom;labelPosition=center;align=center;html=1;fillColor=#CCCCCC;strokeColor=#6881B3;gradientColor=none;gradientDirection=north;strokeWidth=2;shape=mxgraph.networks.pc;rounded=0;shadow=0;comic=0;fontSize=24;" parent="9Yv24LjLBe8T0jyLMU3n-17" vertex="1">
                    <mxGeometry x="477.1840015377943" y="899.5123914779196" width="225.51435883667773" height="160.68787668987096" as="geometry"/>
                </mxCell>
                <mxCell id="7c3789c024ecab99-2" value="PC" style="fontColor=#0066CC;verticalAlign=top;verticalLabelPosition=bottom;labelPosition=center;align=center;html=1;fillColor=#CCCCCC;strokeColor=#6881B3;gradientColor=none;gradientDirection=north;strokeWidth=2;shape=mxgraph.networks.pc;rounded=0;shadow=0;comic=0;fontSize=24;" parent="9Yv24LjLBe8T0jyLMU3n-17" vertex="1">
                    <mxGeometry x="184.85057341617522" y="899.5123914779196" width="225.51435883667773" height="160.68787668987096" as="geometry"/>
                </mxCell>
                <mxCell id="7c3789c024ecab99-6" value="&lt;div style=&quot;font-size: 24px;&quot;&gt;Printer&lt;/div&gt;" style="fontColor=#0066CC;verticalAlign=top;verticalLabelPosition=bottom;labelPosition=center;align=center;html=1;fillColor=#CCCCCC;strokeColor=#6881B3;gradientColor=none;gradientDirection=north;strokeWidth=2;shape=mxgraph.networks.printer;rounded=0;shadow=0;comic=0;fontSize=24;" parent="9Yv24LjLBe8T0jyLMU3n-17" vertex="1">
                    <mxGeometry x="-43.016169081119855" y="626.5957292493463" width="167.04767321235386" height="137.34006554689827" as="geometry"/>
                </mxCell>
                <mxCell id="7c3789c024ecab99-9" value="" style="fontColor=#0066CC;verticalAlign=top;verticalLabelPosition=bottom;labelPosition=center;align=center;html=1;fillColor=#CCCCCC;strokeColor=#6881B3;gradientColor=none;gradientDirection=north;strokeWidth=2;shape=mxgraph.networks.wireless_hub;rounded=0;shadow=0;comic=0;fontSize=24;" parent="9Yv24LjLBe8T0jyLMU3n-17" vertex="1">
                    <mxGeometry x="351.8982466285295" y="695.1277161399667" width="167.04767321235386" height="116.73905571486353" as="geometry"/>
                </mxCell>
                <mxCell id="7c3789c024ecab99-13" style="edgeStyle=none;html=1;labelBackgroundColor=none;endArrow=none;endFill=0;strokeWidth=2;fontFamily=Verdana;fontSize=24;fontColor=#036897;exitX=0.5;exitY=0.07;exitDx=0;exitDy=0;exitPerimeter=0;entryX=0.5;entryY=1;entryDx=0;entryDy=0;entryPerimeter=0;" parent="9Yv24LjLBe8T0jyLMU3n-17" source="7c3789c024ecab99-1" target="38" edge="1">
                    <mxGeometry relative="1" as="geometry">
                        <mxPoint x="264.1982181920436" y="710.0687915188996" as="targetPoint"/>
                    </mxGeometry>
                </mxCell>
                <mxCell id="7c3789c024ecab99-14" style="edgeStyle=none;html=1;labelBackgroundColor=none;endArrow=none;endFill=0;strokeWidth=2;fontFamily=Verdana;fontSize=24;fontColor=#036897;exitX=0.5;exitY=0.07;exitDx=0;exitDy=0;exitPerimeter=0;entryX=0.5;entryY=1;entryDx=0;entryDy=0;entryPerimeter=0;" parent="9Yv24LjLBe8T0jyLMU3n-17" source="7c3789c024ecab99-2" target="38" edge="1">
                    <mxGeometry relative="1" as="geometry">
                        <mxPoint x="-3.0780589477229086" y="809.5177139818768" as="sourcePoint"/>
                    </mxGeometry>
                </mxCell>
                <mxCell id="7c3789c024ecab99-11" value="" style="html=1;fillColor=#CCCCCC;strokeColor=#6881B3;gradientColor=none;gradientDirection=north;strokeWidth=2;shape=mxgraph.networks.comm_link_edge;html=1;labelBackgroundColor=none;endArrow=none;endFill=0;fontFamily=Verdana;fontSize=24;exitX=1;exitY=0.5;exitDx=0;exitDy=0;exitPerimeter=0;entryX=0;entryY=0.5;entryDx=0;entryDy=0;entryPerimeter=0;" parent="9Yv24LjLBe8T0jyLMU3n-17" source="7c3789c024ecab99-6" target="7c3789c024ecab99-10" edge="1">
                    <mxGeometry width="100" height="100" relative="1" as="geometry">
                        <mxPoint x="719.4031276957074" y="572.7287259720015" as="sourcePoint"/>
                        <mxPoint x="348.5" y="648" as="targetPoint"/>
                    </mxGeometry>
                </mxCell>
                <mxCell id="7c3789c024ecab99-31" value="" style="html=1;fillColor=#CCCCCC;strokeColor=#6881B3;gradientColor=none;gradientDirection=north;strokeWidth=2;shape=mxgraph.networks.comm_link_edge;html=1;labelBackgroundColor=none;endArrow=none;endFill=0;fontFamily=Verdana;fontSize=24;exitX=0.02;exitY=0.94;exitDx=0;exitDy=0;exitPerimeter=0;entryX=0.95;entryY=0.03;entryDx=0;entryDy=0;entryPerimeter=0;" parent="9Yv24LjLBe8T0jyLMU3n-17" source="7c3789c024ecab99-9" target="7c3789c024ecab99-32" edge="1">
                    <mxGeometry width="100" height="100" relative="1" as="geometry">
                        <mxPoint x="2493.4494172109057" y="1833.5105276925274" as="sourcePoint"/>
                        <mxPoint x="1997.317827770215" y="1714.0246706667258" as="targetPoint"/>
                    </mxGeometry>
                </mxCell>
                <mxCell id="7c3789c024ecab99-32" value="iPhone" style="fontColor=#0066CC;verticalAlign=top;verticalLabelPosition=bottom;labelPosition=center;align=center;html=1;fillColor=#CCCCCC;strokeColor=#6881B3;gradientColor=none;gradientDirection=north;strokeWidth=2;shape=mxgraph.networks.mobile;rounded=0;shadow=0;comic=0;fontSize=24;" parent="9Yv24LjLBe8T0jyLMU3n-17" vertex="1">
                    <mxGeometry x="-7.100919340464131" y="827.7989252755522" width="98.55812719528878" height="160.68787668987096" as="geometry"/>
                </mxCell>
                <mxCell id="7c3789c024ecab99-53" value="Internet" style="html=1;fillColor=#CCCCCC;strokeColor=#6881B3;gradientColor=none;gradientDirection=north;strokeWidth=2;shape=mxgraph.networks.cloud;fontColor=#6881B3;rounded=0;shadow=0;comic=0;align=center;fontSize=36;" parent="9Yv24LjLBe8T0jyLMU3n-17" vertex="1">
                    <mxGeometry x="895.219512195122" width="550.9043151969981" height="210.02961865975564" as="geometry"/>
                </mxCell>
                <mxCell id="7c3789c024ecab99-59" style="edgeStyle=none;html=1;labelBackgroundColor=none;endArrow=none;endFill=0;strokeWidth=2;fontFamily=Verdana;fontSize=24;fontColor=#6881B3;entryX=0.5;entryY=1;entryDx=0;entryDy=0;entryPerimeter=0;" parent="9Yv24LjLBe8T0jyLMU3n-17" source="7c3789c024ecab99-58" target="38" edge="1">
                    <mxGeometry relative="1" as="geometry">
                        <mxPoint x="521.5" y="649" as="targetPoint"/>
                    </mxGeometry>
                </mxCell>
                <mxCell id="7c3789c024ecab99-58" value="&lt;div style=&quot;font-size: 24px;&quot;&gt;Storage Server&lt;/div&gt;&lt;div style=&quot;font-size: 24px;&quot;&gt;&lt;br style=&quot;font-size: 24px;&quot;&gt;&lt;/div&gt;" style="fontColor=#0066CC;verticalAlign=top;verticalLabelPosition=bottom;labelPosition=center;align=center;html=1;fillColor=#CCCCCC;strokeColor=#6881B3;gradientColor=none;gradientDirection=north;strokeWidth=2;shape=mxgraph.networks.server_storage;rounded=0;shadow=0;comic=0;fontSize=24;" parent="9Yv24LjLBe8T0jyLMU3n-17" vertex="1">
                    <mxGeometry x="788.3126623381783" y="907.9357947962445" width="175.40005687297153" height="144.20706882424315" as="geometry"/>
                </mxCell>
                <mxCell id="7c3789c024ecab99-10" value="" style="fontColor=#0066CC;verticalAlign=top;verticalLabelPosition=bottom;labelPosition=center;align=center;html=1;fillColor=#CCCCCC;strokeColor=#6881B3;gradientColor=none;gradientDirection=north;strokeWidth=2;shape=mxgraph.networks.router;rounded=0;shadow=0;comic=0;fontSize=24;" parent="9Yv24LjLBe8T0jyLMU3n-17" vertex="1">
                    <mxGeometry x="351.898246628529" y="770.8747521907607" width="167.04767321235386" height="41.20201966406948" as="geometry"/>
                </mxCell>
                <mxCell id="KIqzhJ2I8IrrqF5rdHon-26" value="" style="fontColor=#0066CC;verticalAlign=top;verticalLabelPosition=bottom;labelPosition=center;align=center;html=1;outlineConnect=0;fillColor=#CCCCCC;strokeColor=#6881B3;gradientColor=none;gradientDirection=north;strokeWidth=2;shape=mxgraph.networks.firewall;fontSize=24;" parent="9Yv24LjLBe8T0jyLMU3n-17" vertex="1">
                    <mxGeometry x="640.8312302513373" y="386.8102917142826" width="167.04767321235386" height="137.34006554689827" as="geometry"/>
                </mxCell>
                <mxCell id="7c3789c024ecab99-50" style="edgeStyle=orthogonalEdgeStyle;html=1;labelBackgroundColor=none;endArrow=none;endFill=0;strokeWidth=2;fontFamily=Verdana;fontSize=24;fontColor=#036897;exitX=1;exitY=0.5;exitDx=0;exitDy=0;exitPerimeter=0;entryX=0.5;entryY=1;entryDx=0;entryDy=0;entryPerimeter=0;" parent="9Yv24LjLBe8T0jyLMU3n-17" source="7c3789c024ecab99-10" target="KIqzhJ2I8IrrqF5rdHon-26" edge="1">
                    <mxGeometry relative="1" as="geometry">
                        <mxPoint x="724.3550668575135" y="611.150357261181" as="targetPoint"/>
                        <mxPoint x="1287.3652166177105" y="901.4472413345422" as="sourcePoint"/>
                        <Array as="points">
                            <mxPoint x="724" y="736"/>
                        </Array>
                    </mxGeometry>
                </mxCell>
                <mxCell id="KIqzhJ2I8IrrqF5rdHon-34" style="edgeStyle=none;html=1;labelBackgroundColor=none;endArrow=none;endFill=0;strokeWidth=2;fontFamily=Verdana;fontSize=24;fontColor=#6881B3;entryX=0.5;entryY=1;entryDx=0;entryDy=0;entryPerimeter=0;exitX=0.5;exitY=0;exitDx=0;exitDy=0;exitPerimeter=0;" parent="9Yv24LjLBe8T0jyLMU3n-17" source="KIqzhJ2I8IrrqF5rdHon-26" target="7c3789c024ecab99-53" edge="1">
                    <mxGeometry relative="1" as="geometry">
                        <mxPoint x="633.468640774562" y="663.6674693734119" as="targetPoint"/>
                        <mxPoint x="901.2221969806488" y="858.4576094688332" as="sourcePoint"/>
                    </mxGeometry>
                </mxCell>
                <mxCell id="9Yv24LjLBe8T0jyLMU3n-6" value="" style="fontColor=#0066CC;verticalAlign=top;verticalLabelPosition=bottom;labelPosition=center;align=center;html=1;outlineConnect=0;fillColor=#CCCCCC;strokeColor=#6881B3;gradientColor=none;gradientDirection=north;strokeWidth=2;shape=mxgraph.networks.firewall;fontSize=24;" parent="9Yv24LjLBe8T0jyLMU3n-17" vertex="1">
                    <mxGeometry x="858.5010426340766" y="386.8102917142826" width="167.04767321235386" height="137.34006554689827" as="geometry"/>
                </mxCell>
                <mxCell id="9Yv24LjLBe8T0jyLMU3n-7" style="edgeStyle=none;html=1;labelBackgroundColor=none;endArrow=none;endFill=0;strokeWidth=2;fontFamily=Verdana;fontSize=24;fontColor=#6881B3;entryX=0.5;entryY=1;entryDx=0;entryDy=0;entryPerimeter=0;" parent="9Yv24LjLBe8T0jyLMU3n-17" source="9Yv24LjLBe8T0jyLMU3n-6" target="7c3789c024ecab99-53" edge="1">
                    <mxGeometry relative="1" as="geometry">
                        <mxPoint x="1180.5978736710447" y="218.52017771195852" as="targetPoint"/>
                        <mxPoint x="820.7729831144466" y="340.66506232259684" as="sourcePoint"/>
                    </mxGeometry>
                </mxCell>
                <mxCell id="9Yv24LjLBe8T0jyLMU3n-9" value="192.168.0.0/17" style="text;html=1;strokeColor=#000000;fillColor=none;align=center;verticalAlign=middle;whiteSpace=wrap;rounded=0;fontSize=35;dashed=1;dashPattern=1 1;" parent="9Yv24LjLBe8T0jyLMU3n-17" vertex="1">
                    <mxGeometry x="730" y="1157" width="244.43" height="35.75" as="geometry"/>
                </mxCell>
                <mxCell id="38" value="" style="fontColor=#0066CC;verticalAlign=top;verticalLabelPosition=bottom;labelPosition=center;align=center;html=1;fillColor=#CCCCCC;strokeColor=#6881B3;gradientColor=none;gradientDirection=north;strokeWidth=2;shape=mxgraph.networks.router;rounded=0;shadow=0;comic=0;fontSize=24;" parent="9Yv24LjLBe8T0jyLMU3n-17" vertex="1">
                    <mxGeometry x="858.4982466285292" y="770.6847521907606" width="167.04767321235386" height="41.20201966406948" as="geometry"/>
                </mxCell>
                <mxCell id="41" style="edgeStyle=orthogonalEdgeStyle;html=1;labelBackgroundColor=none;endArrow=none;endFill=0;strokeWidth=2;fontFamily=Verdana;fontSize=24;fontColor=#036897;exitX=0.5;exitY=0;exitDx=0;exitDy=0;exitPerimeter=0;entryX=0.5;entryY=1;entryDx=0;entryDy=0;entryPerimeter=0;" parent="9Yv24LjLBe8T0jyLMU3n-17" source="38" target="9Yv24LjLBe8T0jyLMU3n-6" edge="1">
                    <mxGeometry relative="1" as="geometry">
                        <mxPoint x="942.0248792402535" y="611.150357261181" as="targetPoint"/>
                        <mxPoint x="678.4959198408826" y="790.9257620227957" as="sourcePoint"/>
                        <Array as="points"/>
                    </mxGeometry>
                </mxCell>
                <mxCell id="42" style="edgeStyle=orthogonalEdgeStyle;html=1;labelBackgroundColor=none;endArrow=none;endFill=0;strokeWidth=2;fontFamily=Verdana;fontSize=24;fontColor=#036897;exitX=1;exitY=0.5;exitDx=0;exitDy=0;exitPerimeter=0;entryX=0;entryY=0.5;entryDx=0;entryDy=0;entryPerimeter=0;" parent="9Yv24LjLBe8T0jyLMU3n-17" source="7c3789c024ecab99-10" target="38" edge="1">
                    <mxGeometry relative="1" as="geometry">
                        <mxPoint x="952.0248792402535" y="677.1503572611807" as="targetPoint"/>
                        <mxPoint x="952.0220832347061" y="777.6847521907607" as="sourcePoint"/>
                        <Array as="points">
                            <mxPoint x="839" y="792"/>
                            <mxPoint x="859" y="792"/>
                        </Array>
                    </mxGeometry>
                </mxCell>
                <mxCell id="62" value="" style="group;strokeWidth=1;fontSize=34;" parent="9Yv24LjLBe8T0jyLMU3n-17" vertex="1" connectable="0">
                    <mxGeometry x="1030" y="761.48" width="430" height="60" as="geometry"/>
                </mxCell>
                <mxCell id="64" value="" style="group;strokeWidth=1;fontSize=34;" parent="62" vertex="1" connectable="0">
                    <mxGeometry x="53.398692810457504" y="4.941115728574309e-13" width="323.2038619465098" height="59.9999999999995" as="geometry"/>
                </mxCell>
                <mxCell id="63" value="" style="endArrow=open;html=1;startArrow=open;startFill=0;endFill=0;strokeColor=#312d2a;elbow=vertical;rounded=0;fontFamily=Helvetica;fontColor=#312D2A;fontSize=34;strokeWidth=3;" parent="64" edge="1">
                    <mxGeometry x="-2655.882352941176" y="-532.9412567910091" width="140.52287581699346" height="108.65628395508669" as="geometry">
                        <mxPoint x="376.6013071895426" y="28.78999999999863" as="sourcePoint"/>
                        <mxPoint x="-53.39869281045745" y="28.78999999999863" as="targetPoint"/>
                    </mxGeometry>
                </mxCell>
                <mxCell id="65" value="&lt;font style=&quot;font-size: 32px;&quot;&gt;Site-to-site VPN&lt;/font&gt;" style="whiteSpace=wrap;html=1;align=center;fontFamily=Oracle Sans;verticalAlign=middle;fillColor=#FFFFFF;rounded=0;arcSize=8;strokeColor=none;fontColor=#312D2A;fontSize=32;strokeWidth=1;" parent="64" vertex="1">
                    <mxGeometry x="46.77" y="13.52" width="263.23" height="29.03" as="geometry"/>
                </mxCell>
                <mxCell id="66" value="" style="shape=image;aspect=fixed;image=data:image/svg+xml,PD94bWwgdmVyc2lvbj0iMS4wIiBlbmNvZGluZz0idXRmLTgiPz4NCjwhLS0gR2VuZXJhdG9yOiBBZG9iZSBJbGx1c3RyYXRvciAyNC4wLjIsIFNWRyBFeHBvcnQgUGx1Zy1JbiAuIFNWRyBWZXJzaW9uOiA2LjAwIEJ1aWxkIDApICAtLT4NCjxzdmcgdmVyc2lvbj0iMS4xIiBpZD0iTGF5ZXJfMSIgeG1sbnM9Imh0dHA6Ly93d3cudzMub3JnLzIwMDAvc3ZnIiB4bWxuczp4bGluaz0iaHR0cDovL3d3dy53My5vcmcvMTk5OS94bGluayIgeD0iMHB4IiB5PSIwcHgiDQoJIHZpZXdCb3g9IjAgMCAyMi44IDIxIiBzdHlsZT0iZW5hYmxlLWJhY2tncm91bmQ6bmV3IDAgMCAyMi44IDIxOyIgeG1sOnNwYWNlPSJwcmVzZXJ2ZSI+DQo8c3R5bGUgdHlwZT0idGV4dC9jc3MiPg0KCS5zdDB7ZmlsbDojRkZGRkZGO30NCgkuc3Qxe2ZpbGw6bm9uZTt9DQoJLnN0MntmaWxsOiMxNjE1MTM7fQ0KPC9zdHlsZT4NCjxnIGlkPSJPQ0ktVmlydHVhbC1Qcml2YXRlLU5ldHdvcmstX3gyOF9WUE5feDI5X18xXyI+DQoJPGc+DQoJCTxnPg0KCQkJPHBhdGggY2xhc3M9InN0MCIgZD0iTTQuMywyMC44bDAtOS43SDIuOGwxLjMsMS4zbC0wLjksMC45bC0yLjgtMi44bDIuOC0yLjhsMC45LDAuOUwyLjgsOS44aDEuNVY2LjJoMlY1LjRjMC0yLjgsMi4xLTUsNC45LTUuMg0KCQkJCWMwLjEsMCwwLjIsMCwwLjMsMGMxLjMsMCwyLjYsMC41LDMuNSwxLjRjMSwxLDEuNiwyLjMsMS42LDMuN3YwLjhoMnYzLjZIMjBsLTEuMy0xLjNsMC45LTAuOWwyLjgsMi44bC0yLjgsMi44bC0wLjktMC45bDEuMy0xLjMNCgkJCQloLTEuNWwwLDkuN0g0LjN6Ii8+DQoJCQk8cGF0aCBjbGFzcz0ic3QwIiBkPSJNMTEuNCwwLjVjMS4zLDAsMi40LDAuNSwzLjQsMS4zYzEsMC45LDEuNSwyLjIsMS41LDMuNXYxaDJWMTBoMi4zbC0xLjUtMS41bDAuNi0wLjZsMi41LDIuNWwtMi41LDIuNQ0KCQkJCWwtMC42LTAuNmwxLjUtMS41aC0yLjN2Ny44aDB2MS45aC0wLjhoMEg1LjNINC42di0xLjloMHYtNy44SDIuMmwxLjUsMS41bC0wLjYsMC42bC0yLjUtMi41bDIuNS0yLjVsMC42LDAuNkwyLjIsMTBoMi4zVjYuNGgyDQoJCQkJdi0xYzAtMi42LDItNC44LDQuNi00LjlDMTEuMiwwLjUsMTEuMywwLjUsMTEuNCwwLjUgTTExLjQsMEwxMS40LDBjLTAuMSwwLTAuMiwwLTAuMywwQzguMywwLjIsNiwyLjUsNiw1LjR2MC41SDQuNkg0LjF2MC41djEuNw0KCQkJCUwzLjUsNy42TDMuMiw3LjJMMi44LDcuNmwtMi41LDIuNUwwLDEwLjRsMC40LDAuNGwyLjUsMi41bDAuNCwwLjRsMC40LTAuNGwwLjUtMC41djUuNGwwLDAuNXYxLjlWMjFoMC41aDAuOGgxMi4xaDAuOGgwLjV2LTAuNQ0KCQkJCXYtMS45di0wLjVoMHYtNS40bDAuNSwwLjVsMC40LDAuNGwwLjQtMC40bDIuNS0yLjVsMC40LTAuNGwtMC40LTAuNEwyMCw3LjZsLTAuNC0wLjRsLTAuNCwwLjRsLTAuNSwwLjVWNi40VjUuOWgtMC41aC0xLjVWNS40DQoJCQkJYzAtMS41LTAuNi0yLjktMS43LTMuOUMxNC4xLDAuNSwxMi44LDAsMTEuNCwwTDExLjQsMHogTTE4LjgsOS41VjguOWwwLjYsMC42SDE4LjhMMTguOCw5LjV6IE0zLjQsOS41bDAuNi0wLjZ2MC42SDMuNEwzLjQsOS41eg0KCQkJCSBNMTguOCwxMS4zaDAuNmwtMC42LDAuNlYxMS4zTDE4LjgsMTEuM3ogTTMuNCwxMS4zaDAuNnYwLjZMMy40LDExLjNMMy40LDExLjN6Ii8+DQoJCTwvZz4NCgkJPGc+DQoJCQk8cGF0aCBjbGFzcz0ic3QxIiBkPSJNMTEuMywyLjdDOS45LDIuNyw4LjcsNCw4LjcsNS40djFoNS40di0xYzAtMC43LTAuMy0xLjQtMC44LTEuOUMxMi44LDIuOSwxMi4xLDIuNywxMS4zLDIuN3oiLz4NCgkJCTxwYXRoIGNsYXNzPSJzdDEiIGQ9Ik03LjksNS40YzAtMS45LDEuNS0zLjUsMy40LTMuNmMwLjksMCwxLjgsMC4zLDIuNSwxYzAuNywwLjcsMS4xLDEuNSwxLjEsMi41djFoMC42di0xYzAtMS4xLTAuNS0yLjItMS4zLTMNCgkJCQljLTAuOC0wLjgtMS45LTEuMi0zLTEuMUM5LDEuNCw3LjMsMy4yLDcuMyw1LjR2MWgwLjZWNS40eiIvPg0KCQkJPHBhdGggY2xhc3M9InN0MSIgZD0iTTE1LjMsMTBoMC44djAuOGgtMC44VjEweiBNMTMuOSwxMGgwLjh2MC44aC0wLjhWMTB6IE04LjEsMTBoMC44djAuOEg4LjFWMTB6IE02LjcsMTBoMC44djAuOEg2LjdWMTB6Ii8+DQoJCQk8cGF0aCBjbGFzcz0ic3QyIiBkPSJNMTAuNiwxNWwtMC4zLDIuMmgyLjNMMTIuMiwxNWMwLjUtMC4zLDAuOS0wLjgsMC45LTEuNWMwLTEtMC45LTEuOC0yLTEuN2MtMC43LDAuMS0xLjIsMC43LTEuNCwxLjQNCgkJCQlDOS42LDE0LDEwLDE0LjcsMTAuNiwxNXoiLz4NCgkJCTxyZWN0IHg9IjguMiIgeT0iMTAiIGNsYXNzPSJzdDIiIHdpZHRoPSIwLjgiIGhlaWdodD0iMC44Ii8+DQoJCQk8cmVjdCB4PSI5LjYiIHk9IjEwIiBjbGFzcz0ic3QyIiB3aWR0aD0iMC44IiBoZWlnaHQ9IjAuOCIvPg0KCQkJPHJlY3QgeD0iMTEiIHk9IjEwIiBjbGFzcz0ic3QyIiB3aWR0aD0iMC44IiBoZWlnaHQ9IjAuOCIvPg0KCQkJPHJlY3QgeD0iMTIuNCIgeT0iMTAiIGNsYXNzPSJzdDIiIHdpZHRoPSIwLjgiIGhlaWdodD0iMC44Ii8+DQoJCQk8cmVjdCB4PSI2LjciIHk9IjEwIiBjbGFzcz0ic3QyIiB3aWR0aD0iMC44IiBoZWlnaHQ9IjAuOCIvPg0KCQkJPHJlY3QgeD0iMTUuMyIgeT0iMTAiIGNsYXNzPSJzdDIiIHdpZHRoPSIwLjgiIGhlaWdodD0iMC44Ii8+DQoJCQk8cmVjdCB4PSIxMy45IiB5PSIxMCIgY2xhc3M9InN0MiIgd2lkdGg9IjAuOCIgaGVpZ2h0PSIwLjgiLz4NCgkJCTxnPg0KCQkJCTxwYXRoIGNsYXNzPSJzdDEiIGQ9Ik03LjksNS40YzAtMS45LDEuNS0zLjUsMy40LTMuNmMwLjksMCwxLjgsMC4zLDIuNSwxYzAuNywwLjcsMS4xLDEuNSwxLjEsMi41djFoMC42di0xYzAtMS4xLTAuNS0yLjItMS4zLTMNCgkJCQkJYy0wLjgtMC44LTEuOS0xLjItMy0xLjFDOSwxLjQsNy4zLDMuMiw3LjMsNS40djFoMC42VjUuNHoiLz4NCgkJCQk8cGF0aCBjbGFzcz0ic3QxIiBkPSJNMTEuMywyLjdDOS45LDIuNyw4LjcsNCw4LjcsNS40djFoNS40di0xYzAtMC43LTAuMy0xLjQtMC44LTEuOUMxMi44LDIuOSwxMi4xLDIuNywxMS4zLDIuN3oiLz4NCgkJCQk8cG9seWdvbiBjbGFzcz0ic3QxIiBwb2ludHM9IjE2LjcsMTAuOCAxNi43LDEwIDE3LjUsMTAgMTcuNSw3LjIgNS4zLDcuMiA1LjMsMTAgNi4xLDEwIDYuMSwxMC44IDUuMywxMC44IDUuMywxOS43IDE3LjUsMTkuNyANCgkJCQkJMTcuNSwxMC44IAkJCQkiLz4NCgkJCQk8cGF0aCBjbGFzcz0ic3QyIiBkPSJNMTkuNyw3LjlsLTAuNiwwLjZsMS41LDEuNWgtMi4zVjYuNGgtMnYtMWMwLTEuNC0wLjUtMi42LTEuNS0zLjVjLTEtMC45LTIuMy0xLjQtMy42LTEuMw0KCQkJCQlDOC42LDAuNiw2LjUsMi44LDYuNSw1LjR2MWgtMlYxMEgyLjJsMS41LTEuNUwzLjIsNy45bC0yLjUsMi41bDIuNSwyLjVsMC42LTAuNmwtMS41LTEuNWgyLjNsMCw5LjdoMTMuN2wwLTkuN2gyLjNsLTEuNSwxLjUNCgkJCQkJbDAuNiwwLjZsMi41LTIuNUwxOS43LDcuOXogTTcuMyw1LjRjMC0yLjIsMS43LTQsMy45LTQuMWMxLjEtMC4xLDIuMiwwLjMsMywxLjFjMC44LDAuOCwxLjMsMS44LDEuMywzdjFoLTAuNnYtMQ0KCQkJCQljMC0wLjktMC40LTEuOC0xLjEtMi41Yy0wLjctMC43LTEuNi0xLTIuNS0xYy0xLjksMC0zLjQsMS42LTMuNCwzLjZ2MUg3LjNWNS40eiBNMTQuMSw1LjR2MUg4Ljd2LTFjMC0xLjUsMS4yLTIuNywyLjYtMi44DQoJCQkJCWMwLjcsMCwxLjQsMC4zLDEuOSwwLjhDMTMuOCw0LDE0LjEsNC42LDE0LjEsNS40eiBNNS4zLDE5Ljd2LTguOWgwLjhWMTBINS4zVjcuMmgxMi4xVjEwaC0wLjh2MC44aDAuOHY4LjlINS4zeiIvPg0KCQkJPC9nPg0KCQk8L2c+DQoJPC9nPg0KPC9nPg0KPC9zdmc+DQo=;strokeWidth=1;fontSize=34;" parent="64" vertex="1">
                    <mxGeometry x="-21.42738692039152" width="60.241038730440565" height="55.440461657973586" as="geometry"/>
                </mxCell>
                <mxCell id="9Yv24LjLBe8T0jyLMU3n-12" value="192.168.128.0/17" style="text;html=1;strokeColor=#000000;fillColor=none;align=center;verticalAlign=middle;whiteSpace=wrap;rounded=0;fontSize=35;dashed=1;dashPattern=1 1;" parent="9Yv24LjLBe8T0jyLMU3n-17" vertex="1">
                    <mxGeometry x="1800" y="1157" width="289.62" height="35.75" as="geometry"/>
                </mxCell>
                <mxCell id="43" value="" style="group;strokeWidth=1;" parent="1" vertex="1" connectable="0">
                    <mxGeometry x="1676.23" y="680" width="603.77" height="683" as="geometry"/>
                </mxCell>
                <mxCell id="44" value="&lt;b&gt;&lt;font style=&quot;font-size: 34px;&quot;&gt;VCN&lt;/font&gt;&lt;/b&gt;" style="whiteSpace=wrap;html=1;strokeWidth=2;dashed=1;align=left;fontFamily=Oracle Sans;verticalAlign=top;fillColor=none;fontColor=#AE562C;strokeColor=#AE562C;perimeterSpacing=0;fontSize=12;spacingLeft=5;" parent="43" vertex="1">
                    <mxGeometry y="30" width="568.9878339071894" height="653" as="geometry"/>
                </mxCell>
                <mxCell id="46" value="" style="group;strokeWidth=1;fontSize=34;" parent="43" vertex="1" connectable="0">
                    <mxGeometry x="62.05560409065213" y="71.04" width="490.5185225345598" height="158.96" as="geometry"/>
                </mxCell>
                <mxCell id="47" value="&lt;b style=&quot;font-size: 29px;&quot;&gt;Public Subnet&lt;/b&gt;&lt;br style=&quot;font-size: 29px;&quot;&gt;&lt;font color=&quot;#312d2a&quot; style=&quot;font-size: 29px;&quot;&gt;192.168.255.0/24&lt;/font&gt;" style="whiteSpace=wrap;html=1;strokeWidth=1;dashed=1;align=left;fontFamily=Oracle Sans;verticalAlign=top;fillColor=none;fontColor=#AE562C;perimeterSpacing=0;strokeColor=#AE562C;fontSize=29;spacingLeft=5;" parent="46" vertex="1">
                    <mxGeometry width="471.27284647438125" height="158.95600466569059" as="geometry"/>
                </mxCell>
                <mxCell id="49" value="" style="shape=image;verticalLabelPosition=bottom;verticalAlign=top;imageAspect=0;aspect=fixed;image=data:image/svg+xml,PHN2ZyB4bWxucz0iaHR0cDovL3d3dy53My5vcmcvMjAwMC9zdmciIHhtbG5zOnhsaW5rPSJodHRwOi8vd3d3LnczLm9yZy8xOTk5L3hsaW5rIiB2ZXJzaW9uPSIxLjEiIGlkPSJMYXllcl8xIiB4PSIwcHgiIHk9IjBweCIgdmlld0JveD0iMCAwIDQyIDQyIiBzdHlsZT0iZW5hYmxlLWJhY2tncm91bmQ6bmV3IDAgMCA0MiA0MjsiIHhtbDpzcGFjZT0icHJlc2VydmUiIHdpZHRoPSI0MiIgaGVpZ2h0PSI0MiI+JiN4YTs8Zz4mI3hhOwk8Zz4mI3hhOwkJPHJlY3QgeD0iMC41IiB5PSIwLjUiIHN0eWxlPSJmaWxsOiNGRkZGRkY7IiB3aWR0aD0iNDEiIGhlaWdodD0iNDEiLz4mI3hhOwkJPHBhdGggc3R5bGU9ImZpbGw6I0ZGRkZGRjsiIGQ9Ik00MSwxdjQwSDFWMUg0MSBNNDIsMGgtMUgxSDB2MXY0MHYxaDFoNDBoMXYtMVYxVjBMNDIsMHoiLz4mI3hhOwk8L2c+JiN4YTsJPGc+JiN4YTsJCTxwYXRoIHN0eWxlPSJmaWxsOiNCQjUwMUM7IiBkPSJNMSwxdjQwaDQwVjFIMXogTTM5LjUsMTMuOEgxMy42VjIuNWgyNS45VjEzLjh6IE0yLjUsMjguMmg5LjZ2MTEuNEgyLjVWMjguMnogTTEyLjEsMi41djExLjRIMi41JiMxMDsmIzk7JiM5OyYjOTtWMi41SDEyLjF6IE0xMi4xLDE1LjN2MTEuNEgyLjVWMTUuM0gxMi4xeiBNMTMuNiwzOS41VjI4LjJoMjUuOXYxMS40SDEzLjZ6IE0xMy42LDI2LjdWMTUuM2gyNS45djExLjRIMTMuNnoiLz4mI3hhOwkJPHBvbHlnb24gc3R5bGU9ImZpbGw6I0JCNTAxQzsiIHBvaW50cz0iMTUsMTIuMyAxNi43LDEyLjMgMTcuNiwxMC42IDE4LjUsMTIuMyAyMC4xLDEyLjMgMTguNiw5LjYgMjAsNy4xIDE4LjQsNy4xIDE3LjYsOC43ICYjMTA7JiM5OyYjOTsmIzk7MTYuNyw3LjEgMTUuMSw3LjEgMTYuNiw5LjYgJiM5OyYjOTsiLz4mI3hhOwkJPHJlY3QgeD0iMjAuOSIgeT0iMTEuMSIgc3R5bGU9ImZpbGw6I0JCNTAxQzsiIHdpZHRoPSIxLjQiIGhlaWdodD0iMS4yIi8+JiN4YTsJCTxwb2x5Z29uIHN0eWxlPSJmaWxsOiNCQjUwMUM7IiBwb2ludHM9IjI1LDEyLjMgMjUuOSwxMC42IDI2LjgsMTIuMyAyOC40LDEyLjMgMjYuOCw5LjYgMjguMyw3LjEgMjYuOCw3LjEgMjUuOSw4LjcgMjUsNy4xICYjMTA7JiM5OyYjOTsmIzk7MjMuNCw3LjEgMjQuOSw5LjYgMjMuNCwxMi4zICYjOTsmIzk7Ii8+JiN4YTsJCTxyZWN0IHg9IjI4LjkiIHk9IjExLjEiIHN0eWxlPSJmaWxsOiNCQjUwMUM7IiB3aWR0aD0iMS40IiBoZWlnaHQ9IjEuMiIvPiYjeGE7CQk8cG9seWdvbiBzdHlsZT0iZmlsbDojQkI1MDFDOyIgcG9pbnRzPSIzMi43LDEyLjMgMzMuNiwxMC42IDM0LjYsMTIuMyAzNi4xLDEyLjMgMzQuNiw5LjYgMzYsNy4xIDM0LjUsNy4xIDMzLjYsOC43IDMyLjcsNy4xICYjMTA7JiM5OyYjOTsmIzk7MzEuMiw3LjEgMzIuNiw5LjYgMzEuMSwxMi4zICYjOTsmIzk7Ii8+JiN4YTsJCTxyZWN0IHg9IjM2LjYiIHk9IjExLjEiIHN0eWxlPSJmaWxsOiNCQjUwMUM7IiB3aWR0aD0iMS40IiBoZWlnaHQ9IjEuMiIvPiYjeGE7CQk8cG9seWdvbiBzdHlsZT0iZmlsbDojQkI1MDFDOyIgcG9pbnRzPSIyMCwyMC4xIDE4LjQsMjAuMSAxNy42LDIxLjcgMTYuNywyMC4xIDE1LjEsMjAuMSAxNi42LDIyLjYgMTUsMjUuMyAxNi43LDI1LjMgMTcuNiwyMy42ICYjMTA7JiM5OyYjOTsmIzk7MTguNSwyNS4zIDIwLjEsMjUuMyAxOC42LDIyLjYgJiM5OyYjOTsiLz4mI3hhOwkJPHJlY3QgeD0iMjAuOSIgeT0iMjQiIHN0eWxlPSJmaWxsOiNCQjUwMUM7IiB3aWR0aD0iMS40IiBoZWlnaHQ9IjEuMiIvPiYjeGE7CQk8cG9seWdvbiBzdHlsZT0iZmlsbDojQkI1MDFDOyIgcG9pbnRzPSIyOC4zLDIwLjEgMjYuOCwyMC4xIDI1LjksMjEuNyAyNSwyMC4xIDIzLjQsMjAuMSAyNC45LDIyLjYgMjMuNCwyNS4zIDI1LDI1LjMgMjUuOSwyMy42ICYjMTA7JiM5OyYjOTsmIzk7MjYuOCwyNS4zIDI4LjQsMjUuMyAyNi44LDIyLjYgJiM5OyYjOTsiLz4mI3hhOwkJPHJlY3QgeD0iMjguOSIgeT0iMjQiIHN0eWxlPSJmaWxsOiNCQjUwMUM7IiB3aWR0aD0iMS40IiBoZWlnaHQ9IjEuMiIvPiYjeGE7CQk8cG9seWdvbiBzdHlsZT0iZmlsbDojQkI1MDFDOyIgcG9pbnRzPSIzNiwyMC4xIDM0LjUsMjAuMSAzMy42LDIxLjcgMzIuNywyMC4xIDMxLjIsMjAuMSAzMi42LDIyLjYgMzEuMSwyNS4zIDMyLjcsMjUuMyAmIzEwOyYjOTsmIzk7JiM5OzMzLjYsMjMuNiAzNC42LDI1LjMgMzYuMSwyNS4zIDM0LjYsMjIuNiAmIzk7JiM5OyIvPiYjeGE7CQk8cmVjdCB4PSIzNi42IiB5PSIyNCIgc3R5bGU9ImZpbGw6I0JCNTAxQzsiIHdpZHRoPSIxLjQiIGhlaWdodD0iMS4yIi8+JiN4YTsJCTxwb2x5Z29uIHN0eWxlPSJmaWxsOiNCQjUwMUM7IiBwb2ludHM9IjIwLDMyLjkgMTguNCwzMi45IDE3LjYsMzQuNCAxNi43LDMyLjkgMTUuMSwzMi45IDE2LjYsMzUuMyAxNSwzOCAxNi43LDM4IDE3LjYsMzYuMyAmIzEwOyYjOTsmIzk7JiM5OzE4LjUsMzggMjAuMSwzOCAxOC42LDM1LjQgJiM5OyYjOTsiLz4mI3hhOwkJPHJlY3QgeD0iMjAuOSIgeT0iMzYuOCIgc3R5bGU9ImZpbGw6I0JCNTAxQzsiIHdpZHRoPSIxLjQiIGhlaWdodD0iMS4yIi8+JiN4YTsJCTxwb2x5Z29uIHN0eWxlPSJmaWxsOiNCQjUwMUM7IiBwb2ludHM9IjI4LjMsMzIuOSAyNi44LDMyLjkgMjUuOSwzNC40IDI1LDMyLjkgMjMuNCwzMi45IDI0LjksMzUuMyAyMy40LDM4IDI1LDM4IDI1LjksMzYuMyAmIzEwOyYjOTsmIzk7JiM5OzI2LjgsMzggMjguNCwzOCAyNi44LDM1LjQgJiM5OyYjOTsiLz4mI3hhOwkJPHJlY3QgeD0iMjguOSIgeT0iMzYuOCIgc3R5bGU9ImZpbGw6I0JCNTAxQzsiIHdpZHRoPSIxLjQiIGhlaWdodD0iMS4yIi8+JiN4YTsJCTxwb2x5Z29uIHN0eWxlPSJmaWxsOiNCQjUwMUM7IiBwb2ludHM9IjM2LDMyLjkgMzQuNSwzMi45IDMzLjYsMzQuNCAzMi43LDMyLjkgMzEuMiwzMi45IDMyLjYsMzUuMyAzMS4xLDM4IDMyLjcsMzggMzMuNiwzNi4zICYjMTA7JiM5OyYjOTsmIzk7MzQuNiwzOCAzNi4xLDM4IDM0LjYsMzUuNCAmIzk7JiM5OyIvPiYjeGE7CQk8cmVjdCB4PSIzNi42IiB5PSIzNi44IiBzdHlsZT0iZmlsbDojQkI1MDFDOyIgd2lkdGg9IjEuNCIgaGVpZ2h0PSIxLjIiLz4mI3hhOwk8L2c+JiN4YTs8L2c+JiN4YTs8L3N2Zz4=;fontColor=#312D2A;strokeColor=#AE562C;fontFamily=Helvetica;fontSize=12;fillColor=#FCFBFA;strokeWidth=1;" parent="46" vertex="1">
                    <mxGeometry x="439.61378392122447" y="68.96000000000001" width="54.16" height="54.16" as="geometry"/>
                </mxCell>
                <mxCell id="48" value="" style="shape=image;verticalLabelPosition=bottom;verticalAlign=top;imageAspect=0;aspect=fixed;image=data:image/svg+xml,PHN2ZyB4bWxucz0iaHR0cDovL3d3dy53My5vcmcvMjAwMC9zdmciIHhtbG5zOnhsaW5rPSJodHRwOi8vd3d3LnczLm9yZy8xOTk5L3hsaW5rIiB2ZXJzaW9uPSIxLjEiIGlkPSJMYXllcl8xIiB4PSIwcHgiIHk9IjBweCIgdmlld0JveD0iMCAwIDMyLjM5OTk5NzcxMTE4MTY0IDQyLjE5OTk5Njk0ODI0MjE5IiBzdHlsZT0iZW5hYmxlLWJhY2tncm91bmQ6bmV3IDAgMCAzMi4zIDQyLjI7IiB4bWw6c3BhY2U9InByZXNlcnZlIiB3aWR0aD0iMzIuMzk5OTk3NzExMTgxNjQiIGhlaWdodD0iNDIuMTk5OTk2OTQ4MjQyMTkiPiYjeGE7PGc+JiN4YTsJPGc+JiN4YTsJCTxwYXRoIHN0eWxlPSJmaWxsOiNGRkZGRkY7IiBkPSJNMTUuOCw0MS41QzgsMzguNiw0LjMsMzMuNiwyLjUsMjkuOGMtMi00LjMtMi03LjktMi04LjFWNy4zbDE1LjctNi43bDE1LjYsNi43djE0LjUmIzEwOyYjOTsmIzk7JiM5O2MwLDAuNi0wLjIsMTQuMi0xNS4xLDE5LjdsLTAuNCwwLjJMMTUuOCw0MS41eiIvPiYjeGE7CQk8cGF0aCBzdHlsZT0iZmlsbDojRkZGRkZGOyIgZD0iTTE2LjIsMS4xbDE1LjEsNi41djE0LjJjMCwwLjYtMC4yLDEzLjgtMTQuOCwxOS4ybC0wLjMsMC4xTDE2LDQxQzguMywzOC4yLDQuNywzMy4zLDMsMjkuNiYjMTA7JiM5OyYjOTsmIzk7Yy0xLjktNC4xLTItNy43LTItNy44VjcuNkwxNi4yLDEuMSBNMTYuMiwwbC0wLjQsMC4yTDAuNiw2LjdMMCw2Ljl2MC43djE0LjJjMCwwLjIsMCwzLjksMi4xLDguM2MxLjgsMy44LDUuNiw5LDEzLjYsMTEuOSYjMTA7JiM5OyYjOTsmIzk7bDAuMywwLjFsMC4zLDAuMWwwLjMtMC4xbDAuMy0wLjFjMTUuMy01LjYsMTUuNS0xOS42LDE1LjUtMjAuMlY3LjZWNi45bC0wLjYtMC4zTDE2LjYsMC4yTDE2LjIsMEwxNi4yLDB6Ii8+JiN4YTsJPC9nPiYjeGE7CTxnPiYjeGE7CQk8cGF0aCBzdHlsZT0iZmlsbDpub25lOyIgZD0iTTIuNSw4LjZ2MTMuMmMwLDAuMSwwLDMuNCwxLjgsNy4yYzIuMyw0LjksNi4zLDguNCwxMS45LDEwLjVjMTMuNC01LjEsMTMuNi0xNy4yLDEzLjYtMTcuN1Y4LjYmIzEwOyYjOTsmIzk7JiM5O0wxNi4yLDIuN0wyLjUsOC42eiBNMTYuMSwyOC4zSDd2LTEuNWg5LjFWMjguM3ogTTE2LjEsMjEuNUg3VjIwaDkuMVYyMS41eiBNMTYuMSwxNC4ySDd2LTEuNWg5LjFWMTQuMnogTTIwLjIsMTIuN2wxLjIsMS4ybDMtMyYjMTA7JiM5OyYjOTsmIzk7bDEsMWwtNCw0bC0yLjItMi4yTDIwLjIsMTIuN3ogTTI0LjgsMjIuMmwtMSwxbC0xLjUtMS41bC0xLjUsMS41bC0xLTFsMS41LTEuNWwtMS41LTEuNWwxLTFsMS41LDEuNWwxLjUtMS41bDEsMWwtMS41LDEuNSYjMTA7JiM5OyYjOTsmIzk7TDI0LjgsMjIuMnogTTIwLjIsMjYuOGwxLjIsMS4ybDMtM2wxLDFsLTQsNGwtMi4yLTIuMkwyMC4yLDI2Ljh6Ii8+JiN4YTsJCTxwYXRoIHN0eWxlPSJmaWxsOiNCQjUwMUM7IiBkPSJNMTYuMiwxLjFMMSw3LjZ2MTQuMmMwLDAuMSwwLDMuNywyLDcuOGMxLjcsMy43LDUuNCw4LjYsMTMsMTEuNGwwLjMsMC4xbDAuMy0wLjEmIzEwOyYjOTsmIzk7JiM5O2MxNC42LTUuNCwxNC44LTE4LjcsMTQuOC0xOS4yVjcuNkwxNi4yLDEuMXogTTI5LjgsMjEuOGMwLDAuNS0wLjIsMTIuNi0xMy42LDE3LjdDMTAuNiwzNy40LDYuNiwzMy45LDQuMywyOSYjMTA7JiM5OyYjOTsmIzk7Yy0xLjgtMy45LTEuOC03LjEtMS44LTcuMlY4LjZsMTMuNy01LjlsMTMuNiw1LjlWMjEuOHoiLz4mI3hhOwkJPHJlY3QgeD0iNyIgeT0iMTIuNyIgc3R5bGU9ImZpbGw6I0JCNTAxQzsiIHdpZHRoPSI5LjEiIGhlaWdodD0iMS41Ii8+JiN4YTsJCTxwb2x5Z29uIHN0eWxlPSJmaWxsOiNCQjUwMUM7IiBwb2ludHM9IjI1LjQsMTIgMjQuMywxMSAyMS40LDEzLjkgMjAuMiwxMi43IDE5LjEsMTMuOCAyMS40LDE2ICYjOTsmIzk7Ii8+JiN4YTsJCTxyZWN0IHg9IjciIHk9IjIwIiBzdHlsZT0iZmlsbDojQkI1MDFDOyIgd2lkdGg9IjkuMSIgaGVpZ2h0PSIxLjUiLz4mI3hhOwkJPHBvbHlnb24gc3R5bGU9ImZpbGw6I0JCNTAxQzsiIHBvaW50cz0iMjMuOCwxOC4xIDIyLjMsMTkuNyAyMC43LDE4LjEgMTkuNywxOS4yIDIxLjIsMjAuNyAxOS43LDIyLjIgMjAuNywyMy4zIDIyLjMsMjEuOCAmIzEwOyYjOTsmIzk7JiM5OzIzLjgsMjMuMyAyNC44LDIyLjIgMjMuMywyMC43IDI0LjgsMTkuMiAmIzk7JiM5OyIvPiYjeGE7CQk8cmVjdCB4PSI3IiB5PSIyNi44IiBzdHlsZT0iZmlsbDojQkI1MDFDOyIgd2lkdGg9IjkuMSIgaGVpZ2h0PSIxLjUiLz4mI3hhOwkJPHBvbHlnb24gc3R5bGU9ImZpbGw6I0JCNTAxQzsiIHBvaW50cz0iMjUuNCwyNi4xIDI0LjMsMjUuMSAyMS40LDI4IDIwLjIsMjYuOCAxOS4xLDI3LjkgMjEuNCwzMC4xICYjOTsmIzk7Ii8+JiN4YTsJPC9nPiYjeGE7PC9nPiYjeGE7PC9zdmc+;dashed=1;dashPattern=1 1;strokeColor=#bb511c;strokeWidth=3;fontColor=#AE562C;fontFamily=Helvetica;fontSize=12;fillColor=#FCFBFA;" parent="46" vertex="1">
                    <mxGeometry x="439.61224197886145" width="49.22" height="64.58" as="geometry"/>
                </mxCell>
                <mxCell id="68" value="" style="group;strokeWidth=1;fontSize=34;" parent="43" vertex="1" connectable="0">
                    <mxGeometry x="62.05560409065213" y="250" width="495.34851705294886" height="348.77" as="geometry"/>
                </mxCell>
                <mxCell id="69" value="&lt;b style=&quot;font-size: 29px;&quot;&gt;Private Subnet&lt;/b&gt;&lt;br style=&quot;font-size: 29px;&quot;&gt;&lt;font color=&quot;#312d2a&quot; style=&quot;font-size: 29px;&quot;&gt;192.168.254.0/24&lt;/font&gt;" style="whiteSpace=wrap;html=1;strokeWidth=1;dashed=1;align=left;fontFamily=Oracle Sans;verticalAlign=top;fillColor=none;fontColor=#AE562C;perimeterSpacing=0;strokeColor=#AE562C;fontSize=29;spacingLeft=5;" parent="68" vertex="1">
                    <mxGeometry width="471.6225910889562" height="348.77" as="geometry"/>
                </mxCell>
                <mxCell id="71" value="" style="shape=image;verticalLabelPosition=bottom;verticalAlign=top;imageAspect=0;aspect=fixed;image=data:image/svg+xml,PHN2ZyB4bWxucz0iaHR0cDovL3d3dy53My5vcmcvMjAwMC9zdmciIHhtbG5zOnhsaW5rPSJodHRwOi8vd3d3LnczLm9yZy8xOTk5L3hsaW5rIiB2ZXJzaW9uPSIxLjEiIGlkPSJMYXllcl8xIiB4PSIwcHgiIHk9IjBweCIgdmlld0JveD0iMCAwIDQyIDQyIiBzdHlsZT0iZW5hYmxlLWJhY2tncm91bmQ6bmV3IDAgMCA0MiA0MjsiIHhtbDpzcGFjZT0icHJlc2VydmUiIHdpZHRoPSI0MiIgaGVpZ2h0PSI0MiI+JiN4YTs8Zz4mI3hhOwk8Zz4mI3hhOwkJPHJlY3QgeD0iMC41IiB5PSIwLjUiIHN0eWxlPSJmaWxsOiNGRkZGRkY7IiB3aWR0aD0iNDEiIGhlaWdodD0iNDEiLz4mI3hhOwkJPHBhdGggc3R5bGU9ImZpbGw6I0ZGRkZGRjsiIGQ9Ik00MSwxdjQwSDFWMUg0MSBNNDIsMGgtMUgxSDB2MXY0MHYxaDFoNDBoMXYtMVYxVjBMNDIsMHoiLz4mI3hhOwk8L2c+JiN4YTsJPGc+JiN4YTsJCTxwYXRoIHN0eWxlPSJmaWxsOiNCQjUwMUM7IiBkPSJNMSwxdjQwaDQwVjFIMXogTTM5LjUsMTMuOEgxMy42VjIuNWgyNS45VjEzLjh6IE0yLjUsMjguMmg5LjZ2MTEuNEgyLjVWMjguMnogTTEyLjEsMi41djExLjRIMi41JiMxMDsmIzk7JiM5OyYjOTtWMi41SDEyLjF6IE0xMi4xLDE1LjN2MTEuNEgyLjVWMTUuM0gxMi4xeiBNMTMuNiwzOS41VjI4LjJoMjUuOXYxMS40SDEzLjZ6IE0xMy42LDI2LjdWMTUuM2gyNS45djExLjRIMTMuNnoiLz4mI3hhOwkJPHBvbHlnb24gc3R5bGU9ImZpbGw6I0JCNTAxQzsiIHBvaW50cz0iMTUsMTIuMyAxNi43LDEyLjMgMTcuNiwxMC42IDE4LjUsMTIuMyAyMC4xLDEyLjMgMTguNiw5LjYgMjAsNy4xIDE4LjQsNy4xIDE3LjYsOC43ICYjMTA7JiM5OyYjOTsmIzk7MTYuNyw3LjEgMTUuMSw3LjEgMTYuNiw5LjYgJiM5OyYjOTsiLz4mI3hhOwkJPHJlY3QgeD0iMjAuOSIgeT0iMTEuMSIgc3R5bGU9ImZpbGw6I0JCNTAxQzsiIHdpZHRoPSIxLjQiIGhlaWdodD0iMS4yIi8+JiN4YTsJCTxwb2x5Z29uIHN0eWxlPSJmaWxsOiNCQjUwMUM7IiBwb2ludHM9IjI1LDEyLjMgMjUuOSwxMC42IDI2LjgsMTIuMyAyOC40LDEyLjMgMjYuOCw5LjYgMjguMyw3LjEgMjYuOCw3LjEgMjUuOSw4LjcgMjUsNy4xICYjMTA7JiM5OyYjOTsmIzk7MjMuNCw3LjEgMjQuOSw5LjYgMjMuNCwxMi4zICYjOTsmIzk7Ii8+JiN4YTsJCTxyZWN0IHg9IjI4LjkiIHk9IjExLjEiIHN0eWxlPSJmaWxsOiNCQjUwMUM7IiB3aWR0aD0iMS40IiBoZWlnaHQ9IjEuMiIvPiYjeGE7CQk8cG9seWdvbiBzdHlsZT0iZmlsbDojQkI1MDFDOyIgcG9pbnRzPSIzMi43LDEyLjMgMzMuNiwxMC42IDM0LjYsMTIuMyAzNi4xLDEyLjMgMzQuNiw5LjYgMzYsNy4xIDM0LjUsNy4xIDMzLjYsOC43IDMyLjcsNy4xICYjMTA7JiM5OyYjOTsmIzk7MzEuMiw3LjEgMzIuNiw5LjYgMzEuMSwxMi4zICYjOTsmIzk7Ii8+JiN4YTsJCTxyZWN0IHg9IjM2LjYiIHk9IjExLjEiIHN0eWxlPSJmaWxsOiNCQjUwMUM7IiB3aWR0aD0iMS40IiBoZWlnaHQ9IjEuMiIvPiYjeGE7CQk8cG9seWdvbiBzdHlsZT0iZmlsbDojQkI1MDFDOyIgcG9pbnRzPSIyMCwyMC4xIDE4LjQsMjAuMSAxNy42LDIxLjcgMTYuNywyMC4xIDE1LjEsMjAuMSAxNi42LDIyLjYgMTUsMjUuMyAxNi43LDI1LjMgMTcuNiwyMy42ICYjMTA7JiM5OyYjOTsmIzk7MTguNSwyNS4zIDIwLjEsMjUuMyAxOC42LDIyLjYgJiM5OyYjOTsiLz4mI3hhOwkJPHJlY3QgeD0iMjAuOSIgeT0iMjQiIHN0eWxlPSJmaWxsOiNCQjUwMUM7IiB3aWR0aD0iMS40IiBoZWlnaHQ9IjEuMiIvPiYjeGE7CQk8cG9seWdvbiBzdHlsZT0iZmlsbDojQkI1MDFDOyIgcG9pbnRzPSIyOC4zLDIwLjEgMjYuOCwyMC4xIDI1LjksMjEuNyAyNSwyMC4xIDIzLjQsMjAuMSAyNC45LDIyLjYgMjMuNCwyNS4zIDI1LDI1LjMgMjUuOSwyMy42ICYjMTA7JiM5OyYjOTsmIzk7MjYuOCwyNS4zIDI4LjQsMjUuMyAyNi44LDIyLjYgJiM5OyYjOTsiLz4mI3hhOwkJPHJlY3QgeD0iMjguOSIgeT0iMjQiIHN0eWxlPSJmaWxsOiNCQjUwMUM7IiB3aWR0aD0iMS40IiBoZWlnaHQ9IjEuMiIvPiYjeGE7CQk8cG9seWdvbiBzdHlsZT0iZmlsbDojQkI1MDFDOyIgcG9pbnRzPSIzNiwyMC4xIDM0LjUsMjAuMSAzMy42LDIxLjcgMzIuNywyMC4xIDMxLjIsMjAuMSAzMi42LDIyLjYgMzEuMSwyNS4zIDMyLjcsMjUuMyAmIzEwOyYjOTsmIzk7JiM5OzMzLjYsMjMuNiAzNC42LDI1LjMgMzYuMSwyNS4zIDM0LjYsMjIuNiAmIzk7JiM5OyIvPiYjeGE7CQk8cmVjdCB4PSIzNi42IiB5PSIyNCIgc3R5bGU9ImZpbGw6I0JCNTAxQzsiIHdpZHRoPSIxLjQiIGhlaWdodD0iMS4yIi8+JiN4YTsJCTxwb2x5Z29uIHN0eWxlPSJmaWxsOiNCQjUwMUM7IiBwb2ludHM9IjIwLDMyLjkgMTguNCwzMi45IDE3LjYsMzQuNCAxNi43LDMyLjkgMTUuMSwzMi45IDE2LjYsMzUuMyAxNSwzOCAxNi43LDM4IDE3LjYsMzYuMyAmIzEwOyYjOTsmIzk7JiM5OzE4LjUsMzggMjAuMSwzOCAxOC42LDM1LjQgJiM5OyYjOTsiLz4mI3hhOwkJPHJlY3QgeD0iMjAuOSIgeT0iMzYuOCIgc3R5bGU9ImZpbGw6I0JCNTAxQzsiIHdpZHRoPSIxLjQiIGhlaWdodD0iMS4yIi8+JiN4YTsJCTxwb2x5Z29uIHN0eWxlPSJmaWxsOiNCQjUwMUM7IiBwb2ludHM9IjI4LjMsMzIuOSAyNi44LDMyLjkgMjUuOSwzNC40IDI1LDMyLjkgMjMuNCwzMi45IDI0LjksMzUuMyAyMy40LDM4IDI1LDM4IDI1LjksMzYuMyAmIzEwOyYjOTsmIzk7JiM5OzI2LjgsMzggMjguNCwzOCAyNi44LDM1LjQgJiM5OyYjOTsiLz4mI3hhOwkJPHJlY3QgeD0iMjguOSIgeT0iMzYuOCIgc3R5bGU9ImZpbGw6I0JCNTAxQzsiIHdpZHRoPSIxLjQiIGhlaWdodD0iMS4yIi8+JiN4YTsJCTxwb2x5Z29uIHN0eWxlPSJmaWxsOiNCQjUwMUM7IiBwb2ludHM9IjM2LDMyLjkgMzQuNSwzMi45IDMzLjYsMzQuNCAzMi43LDMyLjkgMzEuMiwzMi45IDMyLjYsMzUuMyAzMS4xLDM4IDMyLjcsMzggMzMuNiwzNi4zICYjMTA7JiM5OyYjOTsmIzk7MzQuNiwzOCAzNi4xLDM4IDM0LjYsMzUuNCAmIzk7JiM5OyIvPiYjeGE7CQk8cmVjdCB4PSIzNi42IiB5PSIzNi44IiBzdHlsZT0iZmlsbDojQkI1MDFDOyIgd2lkdGg9IjEuNCIgaGVpZ2h0PSIxLjIiLz4mI3hhOwk8L2c+JiN4YTs8L2c+JiN4YTs8L3N2Zz4=;fontColor=#312D2A;strokeColor=#AE562C;fontFamily=Helvetica;fontSize=12;fillColor=#FCFBFA;strokeWidth=1;" parent="68" vertex="1">
                    <mxGeometry x="439.5605289754526" y="80" width="53.94" height="53.94" as="geometry"/>
                </mxCell>
                <mxCell id="72" style="vsdxID=55;fillColor=none;gradientColor=none;strokeColor=none;spacingTop=-3;spacingBottom=-3;spacingLeft=-3;spacingRight=-3;points=[];labelBackgroundColor=none;rounded=0;html=1;whiteSpace=wrap;strokeWidth=1;fontSize=18;" parent="43" vertex="1">
                    <mxGeometry x="-37.75049248848005" y="81.18870728083206" width="79.63802524967024" height="85.2481426448737" as="geometry"/>
                </mxCell>
                <mxCell id="73" style="vsdxID=56;fillColor=#FFFFFF;gradientColor=none;shape=stencil(rVvZklw1DP2aeXV5X54D/AcFgUwRktQkQPL3yEzL8j26Vz2T4i00Ukstazk69jykN5/f/fzp7UP0n788ffzj7T+Pv35595B+eIjx8cO7t0+PX+hfD+nHh/Tmt49Pb39/+vjXh1+f//vTz1Ny/uvPj3/Pb/j6rJeGS2lqRf/t+ZPhnR//ffLTs8L7xw+bQk4uxINCr64eFH756+nZRLipRLERlk5pzx99jTep4Eq5ScUllW+2vqablHet3qTSkorp2mH6hS2jwz5YDpOKz+BwcT0fHU7dpQoOF1fL0eHUXO3gcHE5mfYb/6Ldfopgv7rWlf3QwX51qSj7PhoBy64d45X5GM7lk/PlqJD4kM4VghsdFWK/VojD9XFUiC5mUyHAmQfXzTOPfQV4xTys0HHMI51mhJh7N/Ix5rG60SDm3hXDX8mum7+NstZSoDM6VmHrHNRzhbQyUxRCNSNCMT4GpDVOHAmIdx2qtpWVlxyQMBwUbaOcMlIkdFfr0d3kcjMUmusQkAhVBgoVk7AFSHMMCKmUABGhdjSOESEp3yAinkMtEaFOkY4hqYO//txhqu2Dv7Xf6bshS+cLSycE8JdO4uhuba4kcDc7DydYKYB2uJLkaFg62MVIqqL96gJ0UZLKaL9w6K/txwb2V+cV+9EN6OKV4tbAfuRyFPuZv/7KfnQFw78a424/QhcnqYi/P67DZ/ORD/fKfJAfFpZOwmwNqn5JyuPxBzV1a+AKvbafMfzULLqyHzH8fn202fcwRAu3lPNiIUvHIVbuVotngeVvaSuEy1/u48tdEooB3PUuQf8v1e530iHY38JRuPY3wPmWvJrg5q8P4HCWLLh5NyRV2N/khtE9N4WbfOSaOZX33y+cm0tGWxwrpb5XfnWbi0BvGgxoy0oVI84kpcp4YesV6LzO7Cox4hH6EACvJpLZVQSBd53IFR2OMhzE4TVW2eHAsPe68D2g1yzGNvsDxmSWCtwLH/ouSeV7jS9C3507gG58GeYOSakxHRR6J9hf7PhT4wWYQIBexT+o309SDeOv+j4JmbvDnCcQfVoBOv76bTbJOqHabpQNg80XgPYnU9fjr98KQaZ+jGD/ZOrS1Ef7+V5bTAr00ILStP0B5skWJl9e9bDMJ2effVZbRIpyqgK5Ggy9uRPBFjEBH0DEhLWnIGI9Nrfk7yVrdXBa27K1QVrMFpJS2dLk5HkR6oxyXwjaZb+68rcLEghLR6VXlwHMDm9FkJZUhbFHUsVYu7Y95iZfODJXS9S2H/FHWfm7rVr8SVoUxNoqtxWOP1pZc7Ul1uPwIAWL3Jl76BE2xTVMzhWq9LoVomLCYjquAuMpyLq+ItJdOkaETovXia+SXgP6wzx5mxiAHzhz0GKPCB8f5Su38ksyJKFCstmmtLiwb1KVHugxanwBcoTKvSPbRCcOyHM2BcthWcm+LQVvRaS5I5EQls1L/i2igjc8mhQf5FQyMZKmJEnByoIT0pPT+FS+eOEDd4h6KkzrS+uv+fKGX37He9p80lDxMR3KQR2A2bVouVsRlckWYYxVqQ3FJXBC0jKJI3zmi3GatP12cNfoyHOjryBtzpzagEahWjtyjyoYTZCi1CfyCCSFbGzYSG4OR0c8R0LNOOy6kcwXDUj5u3VF9rcJo8L+DoX/SSqDv80LlpYx3410xtLtDPTOpal0IZeHOYFb5trYJlSyLBQ5PZmBRr9qG8u3FLpJHbTGVJgMeUiPNiSQPOLywsAc7u4VzTURhhHuHhz8usrk3YWzfVtpwtLpMG66Xk+i3Eosf7dlIy2pYgCGnrDbTYxozkdSQdp1ok8IMEkhjzeHPWDUnhUzQxA5Ww5nOdsFCeyB3otawFNQoLpvDDDP+OhgnpPQgPqbCMPo9tvNGvub4a5E+VsZAom/tKFggJvitediB/2epOJrV0bSwQPel1Gx34B6mzdgTdkfuDS1Ow2+Cym+LexIGPSuV9aumFKSwus2krLvFUgnQ0WSTlfmO5of+ucju+TNq7sudcTsUgDsoZwdahrmuFit5a0sSkIudcyVoVhlgnJm9xjSlW4K+c4twLzOhgVsEnOQ3CSF6DrLMr1oUr/G6HK4suI527hp3BQwG5HvU+zna8Qns/oqd16vkHjpuA44VlPJqyFuAfdIpG89J+nzZmK6wLWlypAGzHRluHyd0cijN7WP7mkvxD8yCns9sb843tDfo7OEfuxeubUBuVVBZN67Anfz7gXrr6thSJA+37MfoZzmGqCbFZqPkgLXrXpeapnWtxkgV2oRjG/jRG7UkFk9GVQ1A1Y9MY/vQurJoNzGKdsvGjptc3q70TRWgYkFjtlSq7MH2wYxtmUGD2uDK+xvX9e9G3JaOEiWmWr5u2Gtm8K4l11J3Vk2r26sd0AoN+wNs3tDmrzNBPbo3OEod5E3hWjyrQp8z0cKxvIy4T28OcgAPtVqMRSdP99XwDJHC0iH5ZPWmAEp16raLlqHp1B6eTruQqRg0V9zPQOFYfa/uQDCayPa58ysng87AF53ry4+WxAaQXYarEKSgn18rkeWv9tCvLLmiADUPk49HeAd6WSAt3Nrx9dkUeG7KrTolubGgcxKhvjeUWhCsEu5GRBhe1Mh78WCxUclJMhIoVkKkatqKRSmDa4JrAacapdc3ggsD51vtkwIuRe6TbYy6/56EnQN/R2mv4QSVI5Uecu3IQ5wty4mk/0t8khreyFptaUTxtJ+A6r5UMahL6Vb7e9/gcLxFSuhWBiNE9RZHKoEVx6FWvcABDuBlVQK6kyLUFVypgNycL7ZwLqX54PrUDM3RTlUKwP1I11L+tXRu69wPB/aYkJ4jYUThWYSibSt9WorqGfJRWIqAC/AokILJraItu5l16vk9UJ2Ox5ecM793R7UvUzhfwihfUhF7iW5qumcDZeKum4OiRenq6qDl8L3FFSizadVxvQ6UYjmbHn9j76vALmvTjokmF4qNVYyvUxB5X4wOpnOizshOlGwD+F7fvE9BfqH/AnDb4/v3z//BcT+//FPHuij5z+XSD/+Cw==);strokeColor=none;spacingTop=-3;spacingBottom=-3;spacingLeft=-3;spacingRight=-3;points=[];labelBackgroundColor=none;rounded=0;html=1;whiteSpace=wrap;strokeWidth=1;fontSize=18;" parent="72" vertex="1">
                    <mxGeometry y="1.0148588410104011" width="77.56950511331517" height="82.2035661218425" as="geometry"/>
                </mxCell>
                <mxCell id="74" style="vsdxID=57;fillColor=#FFFFFF;gradientColor=none;shape=stencil(nV3bsiW1Df2aee3y/fJMyH9QAcJUCFADJMzfR65zbLnX6lbvkzdyIo3cvsjS0pL3p/jN7z9999sPn4L7/Y8vv/7rh/9+/v6Pnz7Fv30K4fMvP/3w5fMf8l+f4ref4jc//vrlh39++fXPX75/+9+/fTckx3/9+9f/jH/hrze97A7fh1ZwX9/+Eo/w9oe/v8n//PmXXT4dLp/ky9GCKe8byPdoyLejneW9P4KlUI4SzwrPX1DPCu7o2VDwx1m+HbV8QNznI9gzhOPJR7Q+IB/do0JJ9hQ1W+Eff3552xX+XaUeaS6zRx33V1iLtTZPWFI9vEvFJdXnv/X+J18OZ31hP857UuSNLVD80QrKN0shHj6cFeoRvKGQjlJRoRpfUMqRYI3akYw1KvXIHRV6s9aotGN+xFyifoRyXiIRqrhE/chzId/Xo/Qjzu+LS6rV+/FWNzf1HG9wRzT3lKiso+2XTvXnAVe/RjcHHPzh2nnANahbiUvKOMSiUM8rKPI9mOMVP4LjDUfIMN5IEyxSGceb9N+KS+rsCMl+mROq9tORYIFr04WY9suanGVfT9Q03w5XLPPN8ee3I8NyiVTB5ZKNW8/mmwfj/UiGS2x+febXpWAfhrZWc402uiPDZLVwRJis6A+Po5W9Es8DFqlq2xeXAosVxVgD+3FOutqXLYX2ZeMlsC9bKj/YT/j9YTrB3f66Oqb9eBRw2C1NZ6j21zV+Zz8dGe2no8KFIVL4+WmNaDMPRyXm6dfurOfDebAu1xXu1fXPqPmybrBlPh8JfGFcF+i9/XU/TPtV95XaB08hQgW/vixnt8zLNWtaL/pdfqnM62RZF3eCX9+mj9/NZ1z7Pp3evX36+q67Su2vE/r+p+Tmnaj26wHmk58R57WvqEc8x3+i0O35qvqN739KgXeLrA3MV1qR5T7eFmDAcsj6g/2lM+2n5cU3+w3nK62ozLIvh+z/sN/RvlwQaD8fDbdro/UqM5a4M68q0/pa9M24z2BcR70ZDxBZpjbDh8vd0iumFx9WkPg+GoFRaxgYkcLFhARYjxyuZqSeZ0SELmbEgfPKET7wwryD4zuyNt6N4LxEaB6QbTdWiDMyZj8Xu7F0MJ/nbbvbxzBLpAqfxgv7dpg37MPNPRImPo2pgf16RDIPcUM+XRvkuSDxG8mvfc+VA6eqr9tqc7QFpqq4lbVvjj7BVIlUeTKPIaHkXoHtBwgyRCpd3HNwdkceZ5rP+PUlHLhOsinAcYhQxX2a18WzjEeAGS6sB9gnolPwlt0ikWk/UTguIU6FS36kmNY1lxCnKXJIgqEQ0Q9JihkN3GJEveeUVXJHb09JWPtdc1KK+Tx5jpFuouOSHQJnp8yc5Xq4bmUZ78OV/DLZ955bl/wcr+h0jJGdXiqak0KYUld2vIYrQs3OfxulCCN5xHyurKx+/iUfcHZrIi9fK0RJF9lshtMjOrBWIuTAy4lQBTcnuXRG880M0mRu+vkWFYVkXoqigtmv6DQ4brJ+BQfcKaESKQdRikhZkJnsPQ+gnzu8GVXK1s/gHEUnwT0qh7DDaRCpCqdhHFXwD82CpzaPu45TtgCwpF5yHWVvzUecgN2mYERBZR2GJR8P4wvydp6WfLFx4h5RoT2AoPDJycaJs/qt1xQIGh9JsQ2zRvU1HnUUZg0Kh2ginSH2kTCzwKkc6bYRgOwa79GuB1Do8QvXkbyd9LN8ARyD0X8yUKx9kzRPeP+EYN0aYyrPJ6UncESg4NAR9DKRjksFSVNWmvuShUSH1/6EtI72NkdWJCD5aG24CsUeEaTU1hqPBOos/bCLWGGEQ+bllfQS2s5JBShWxt0BixxSEHiKlJ+bcjsnxiaT5DgGHLAVSsmMZ/IEpoLXwHp5s24NydESRcsfx6bgj/pjS6HO6253+OaNHQtfgAyriJSDPFakILyKeUG3a42CWaGJcNv4w5juqImzyjv744KeUr3dK4Qj0a/EcbvdE0T/IuUg1h3RheGpI1VpJX6pZjgSup4yv3QiXC2haelMCwod0qWwARQa8FmwSdiSao1+gzngOrONPUAFGCAUmuARxUK8NwogMMEi9WA+EQoyAm9Y4BCo4ikxc8P5cgSiagR8Z9/x53sKBXzXMpYmJw6+X6QS2nfg4tC+6DgIRUTHs30P6e2oBML3e674jhDcDIVGfRSz+07VLpHCBKUoY2DZrxQKjWKpecBFBz5fVBw4LxHC+pGE6oguiBTeMKUe5gUnKljAEJWAs18OxDYKuk6vFY1lPJulXK+Vkpn4Jyhu03Cz5id+6aycXrkACOJKHtEgm/RJb23FYmzE1GtpaYOC4KyKUEYoJhAOJVKIO/g5oHvruFZenbxaR/i8cKnRR6zLFmeDYKJRwU+JSgIQQ6QS+ClJsbDWJFIR/EQ2Ij2/oQPv0g2yRhptIMCyas0nLKEK+0QSBzpVQQGMuKQenEog0GOkdThZm5Riy5hfXdnPENW9Zn9yTzb7kbH1gAc78GLFh7rkrqOVhZ7ZPhwUkQp4TgNdqpJAZiMmCxgFf1T+oTYzRlRshYsJ8VAq3etKgaW0+uR4Q0RwXI+1r11n2t+KatuGBN8hUiGT/RULvVr6G0ctgP201nWzj1HWXqA07D+VPn0g77UXVdU+lYrDlffiUrGVNA13R6ViGzUVFSoVO3ZgUWd1ZgKdL7qoX3VXWocBJxzwExVg3HkQRe4cA72bKiTKI9/D/ZUUYX+VCDG4jmBe4Y0tLkDrmSDQEZUgCeeJBiI6DYkQiZK0QT7E1dJp2+KogKv1RIIRHSLhRL5uFjlxJ+Egw20EkXDdPJKA/AL0Nw4QludGcIzmg0a6ar4BAj04ULb5tk7ysu+JBSNSkMHsRC3NYDCEJgoYnBVlnChn7Ewyu0h5Ojijnbs2U74NatGsOcN8BQXxX2bYhe3en3/aqHvTWFpL+FX/lDDl3DC7O4IhpegAghAjEhSaluiWgrkhZAUwp965nGFJVZxgR7CdbJII5+GRcSo6SEwKjjZkdJqtqn08ELKTkZRHFFmy7/Wk657LaH/DpDXNxpx6uAhYYGIIIyR2nNf3gYI8nDDQqKtZUokVcdFBozbus8FKAxp1mW7mDuZEGnWBNScgNWZUsIvYElksMrjeI+gFRAqBMs9sqBTp0vIZQjLGloH3/aBQVmSuCsk45wy3PzQkXODzsypzNyIIw72HvIzgcZCPE054dVH93HkvztFD/eUsXOyallMO7/u2NrH9D3fYPMpTBw+MxwGW/bgfgPZDOxRYSnO578Qx6zPlJQReF+fbX5aHvHM6UPh9aBBiA5JemAUtxfV1f5oHYIN7X1IYQzqj4wMtsqobFYvXfhWA7xRy+JBCIV+eAAaj2wUQfnErVm0XMpkHRy5XJy6z3dOj0emtwsX17CD+GlE3JHcSHiQID3wl3nLQfO+rhtDV2MiBKCYe0TSKv7Dvq82y4V0AxsxS0SkYgFX1CBqAYEIy3CK2cXUohZP9QtxO3ykdFSls+fGdAsBQqKgxAjDjGtiC6a9LoRu+SFwVNgm5GfVdKyS4yUZ4ayFcgULoBaLcTaFXWt78U1RwLqjdcJ7CsPgwe5ISMatKQJqDrKrp0ugyWJBFRU5JqFZf1jhKZ78TFu/8TiFUVLCZm9uh3vK8iCho1QBb8zys3fqifknzPHsJfaFmysCdehewxHAqCDpmLbJrZmQRUnaNpVANT7qXbZajfMC5FWXZMn/sKPCJeEwD0oAPTAQzS+pjU+98ZPOROgt9JF70QGdwgSPxokci9YQSIi96XI9UkwHjmQunGzyqoNcD6hL0iG6YG9dYIoJuZRkzMH6JJIIN6W43tUKOWA3zenlM841BJ08gihJXrveqx+Bu5JgPw8U6s4RjhIB7hbIU0aWSlKderZGx2s5g01FEuaAz8lTnTo73qtOIQCHwM88B5sthDKHJ1d2A3YGIfVDGQVhCVLHg7hSRwoIJVrBouOfbZxQrrFL2hXyyKgIX8vZmd4iwpkykGu8UKtLyDW0eRwCvpqKXo3XnoX5EOJvssA2AuxbHaehExxtETJiGTohJZtZqp+J/zvMevhlrPy9ZzmZ8QX3qVDR+QeHpgGBNL1eG3fmEYJO4d9R3PAix9mBx5foDkW1X0R4idH+OINnMrwZcuJ/cH0iC4tg8hLNluczd/WFFuixS6e5+M2wekbLAM09ZZQkTxHu9YjzoKTjgQM21V1QXphAobebePjZrig5VrKOyt6b9rCHuPd9jcIOsDRbhJY6C4NhFKEg9YpUwb5+Uc6Q8LmyTuqhAaoPRXewaz8Fu6SbOMKLjiAr5qcbZYUcMDhxGmwWLnOP9CyZrYZVt9BpZN1xFtnj1Jpo1KGvQJxVmbPFiBicK6anuSDMSeI82uhZrZEZUo0M9WpeMmCYQF3oQN21yLLaBKYS9ZdTUWVS0lqw1NhzsrMHeAQaAy9VuXnch02p0EwcboMdJnhqXSB6Z5O6w8HJRAPBSFOy6dKgKe0zyNGJA3PDd/CqNbETkBvMtUtZDPHsJcilYJBEOhgbz3HQIozQJIfIgvsOdGj11hrag3YdaZqQunmhiUNEfZ4/3JB+wQWW0DljAbUIAoSVrj2/Z55TPT+h2yqhgFYRixToiKdAaNXojozG9OzYqBbetF11ZO7RG2XxCLDnE/RqWJUmh9I8oRKI/tGqe+5GjcxuRVXghC93ZhUdqm+nJblQq2F7Wi1kqS+04f0Jv5mU/SmVQ2XHOEPcQ/Dz989yMZo+fWwwfZqgoU+a1NSgB46GHVWYLD/toPEDwoZ2aqfj1oFCovEanjXpxvdZ09bTjmxLFE82wMe9XphBbkWzvVCJiLOIvu7ENJAbHs4vtYvSBhbKSlojZIlLISxx9Zfj4W6VXVLCZjMxXAlzHA1Ro/qLXOeqbWBrRRzZvvsbXaEOgAg24UwlgXL7YnN0Xo2O7opF3WjVf3ZvTDJRSQvQAh8qb53x0/gRbgfrlLxrUPOWpNeATVM1RDLI/FRCXVDK2fOXGYLuhrSbdc0vBgmWqPjazdcBZc56xA10b264VKr1RUB+gUfkXkV82cgR8IbATNjDyDXz4ymn5J65PsGpzjZ69HAtnjXc0+eN4o/J+dctjwXu8nohPmOirKmu8wQoLx9t3sCDBftkrUtOjNxuZRAFy+ZFM228fJeq7Gmk6nJoR73IyTw/HJUrmB5ZgP+rSPoRWjDdoAI9BPOSFp+lK4zVH8KouFs/2YA8yTOV+6eY1dfEynOjQq4iFmhrH/cYv02FT4QCvTKfYuKe0ZH4wqVJdcofY4pIqsOFLOj9Le/XQGn5+JD56a0pAVOwQn5ZqPPvh6U3KRs0Ahfng+sLC3ibn0D01wqaLzRvbNZbCwyOWjQjZEvyteGUOuCutIyypCLe0SGFYMTrgbPubjmLjCE7vUgqOkzfoyoNTMN9KEneNpWBf+k1rklvpAbmrrdO7CLlSO1HfeITaX2eMtxPxcLy1ZlxYlwrWHX6pYFejdxUtTTXYQt3Ro7k5YSdtd8o00YY7K4SY2eRWRvuIuL4EcjcbQAIkhYvZKLChRyWSZ+Oi3Qxf6OobD07bzSz29q6xFKxy7KWCVe+9UIgPb9jtKlrPxkyga+v7Vs++OONYvRzldCOXbVS+TE8vT+wqShjAHX1xxgeGhLdIp6AtOXhs/sI+Puux8Vd3p4htPfpWwGbfw4TFZmYWu8ZSsHNjUVmRtBJSOt+6+Cxd1EcrjGtvEGJs+/wQWCz0cllT7Er5ONjze/Gc5yMfqFVNfPzSQbZZq3Trx0RNeK0SYXCQoZ6CHnyKOfJ2wb0SqQGvFXrLcxDB7Ihn44hqBxy25u9PLCs4j0y7lpmM9HC4s5ZX3xVspl3L2DkRH98wTNTAuxEttoQF6UuDcYgzHBXu2LiMxngV49m4l4Z8UABoyVvkzoG2nBMifUjmPqdFbieTL1qgEDsU+qGKkVDjfBSzGWFP2t8V0sRP7zCDDQ1QPi/ePzuyoHzeADn4DlloQdIiQFTtWXqNsVyJ5h+c2T1UE/UndbORoPLvn3Szol0jvlcyeOjmqamBfh1gdJgiUKOPHiweelM4Rwv0K1rSmnU0AuXq0S94pCyDgqPftMFOvIsf10Agw1f6tYbCqctGKNgQ2QrnwBfrSboByNIPsFjy9YNtfSVTc4fdJSeZOVZ6slnGKAFLMYPTbFdWsFvyQcEhgvnQ9MO/gvMojx05tkJx+OKv0ojuvhlbx7z5U0VsoZv0HU0gVwoFtXcuoJWPyJ+dtQ1gcCOeVSv8YBfes7z8h/5o14+ff/757Te/9v8ff+RL/vT2A2Hx2/8B);strokeColor=none;spacingTop=-3;spacingBottom=-3;spacingLeft=-3;spacingRight=-3;points=[];labelBackgroundColor=none;rounded=0;html=1;whiteSpace=wrap;strokeWidth=1;fontSize=18;" parent="72" vertex="1">
                    <mxGeometry width="79.63802524967024" height="85.2481426448737" as="geometry"/>
                </mxCell>
                <mxCell id="75" style="vsdxID=58;fillColor=#2d5967;gradientColor=none;shape=stencil(lVNdb4MwDPw1ebUcO188d93/qFY6ojGoKN26f79kSaGJVKS9xZez73IYwbtLdzi3gvAyT+NH++2Pcyf4RRD5oWsnP4eT4L3g3Wmc2vdpvA7HVJ8PkRlPn+NXnHBLfRg7CH9S1SDoP+A1cXs/POVKxEfq23VKc2W6Jg2ac0OGGguxjtCNEqQaYJNZGXIaXCZxQowFrTJphQxtyYcplkr5oKW4lA+OpC3lo+9K//7SRR2fZxQSNEVMmyE5C86ULolBliatBUWlSaXuKktGCI2rMpKAmxmFKUuuctVSpXwwhPUnCra51K8S+s8i1dxwWLf15Ps+Lfvjfb3dAUp/Bu9/AQ==);strokeColor=none;spacingTop=-3;spacingBottom=-3;spacingLeft=-3;spacingRight=-3;points=[];labelBackgroundColor=none;rounded=0;html=1;whiteSpace=wrap;strokeWidth=1;fontSize=18;" parent="72" vertex="1">
                    <mxGeometry x="42.40466279527896" y="45.66864784546805" width="26.890761772615924" height="26.38632986627043" as="geometry"/>
                </mxCell>
                <mxCell id="76" style="vsdxID=59;fillColor=#2d5967;gradientColor=none;shape=stencil(hVNBcoMwDHyNrxpblm04p+k/Mg0pnlLIENKS3wciO2BPQ2/yaqXVSGuhd5f6cK4EysvQd1/Vrz8OtdBvAtG3ddX7YYqE3gu9O3V99dl31/bI7/NhZs7Rd/czdxi5rgRScxHKGwPy8XpnbuPbFVe+Jn5ce+6qOIlQ6MCOiAFTMDQiQ4oAA3QLEE3zhMJRM6QRyAZWgKwDi1vyRoKlVL8wkMk7AnKpfOkAMZVXUqbiEfhzRQs7NJRgtgZ1FkqTDeqeu4uTGrOsIA7vgChbVAkSs0WpCL26Ez6vEvWJwGZ3QlAmlUcNKlVfGUn/66Rt103BYteTbxp2+zqf23uC+Gvo/R0=);strokeColor=none;spacingTop=-3;spacingBottom=-3;spacingLeft=-3;spacingRight=-3;points=[];labelBackgroundColor=none;rounded=0;html=1;whiteSpace=wrap;strokeWidth=1;fontSize=18;" parent="72" vertex="1">
                    <mxGeometry x="9.30834061359782" y="45.66864784546805" width="26.890761772615924" height="26.38632986627043" as="geometry"/>
                </mxCell>
                <mxCell id="77" style="vsdxID=60;fillColor=#2d5967;gradientColor=none;shape=stencil(jVNBcsMgDHwNVw0IYcE5Tf6RaZyaqWtniNOmv68JJDHM1O1NrBbtWqyF3py7/akVKM9TGN/bL3+YOqFfBKIfujb4aa6E3gq9OY6hfQvjZTik82kfmbH6GD/jhGu65yQ08RLK7wQoKW/nXWL3fliw781fyK+XkGarPJwhdm8XMsQEpBN0xQRZA+wyK0NGgrGZpRPU8MNoRjQCramTA6rUFQGqUh0NGC7VEbgSl6XyyobK/cwO1JpF1CBdZRFBVRaJHp9+d4hgsNqPAknVgiy4Zk2eGciW8sbkpT6fh8FWz8MNOFXKL3Kk/xGkv2I3F8/EHn3fp8Av+3XCZyj9HXr7Aw==);strokeColor=none;spacingTop=-3;spacingBottom=-3;spacingLeft=-3;spacingRight=-3;points=[];labelBackgroundColor=none;rounded=0;html=1;whiteSpace=wrap;strokeWidth=1;fontSize=18;" parent="72" vertex="1">
                    <mxGeometry x="42.40466279527896" y="12.178306092124814" width="26.890761772615924" height="26.38632986627043" as="geometry"/>
                </mxCell>
                <mxCell id="78" style="vsdxID=61;fillColor=#2d5967;gradientColor=none;shape=stencil(nVNBcsMgDHwNVw1IEMfnNP1HpnFqpq6dIU7r/L6mApuoTQ+9iWXR7qzXinaX9nBuFOrLGIa35tMfx1bRk0L0fdsEP86Tor2i3WkIzWsYrv2Rz+dDZMbpffiIGyZ+Z7SOb1Df+FyDNd/AM7M73//B1iX15Rp4s+HLyoKlRE8QQrVlZEJGnAaXoFuCjAU0iUUMEYJNJIk8EC+WZPFCKquvfrJ4YTqL63vlnMGvAS3x5YQE+4dNBCNsVhuojbCJ4PDep3M5kSWjLdQbEdICPZCPW4R8oZXlC0fLN1p9TyS7Qf+pkmTPw9rZk+86rnx5Lzs+Q/x/0P4L);strokeColor=none;spacingTop=-3;spacingBottom=-3;spacingLeft=-3;spacingRight=-3;points=[];labelBackgroundColor=none;rounded=0;html=1;whiteSpace=wrap;strokeWidth=1;fontSize=18;" parent="72" vertex="1">
                    <mxGeometry x="9.30834061359782" y="12.178306092124814" width="26.890761772615924" height="26.38632986627043" as="geometry"/>
                </mxCell>
                <mxCell id="79" style="vsdxID=62;fillColor=#2d5967;gradientColor=none;shape=stencil(lZTdbsMgDIWfhlsLcAL4uuveo1LTBS1LqjTrz9uPjFVtoIFx55DPRwdjm+Hm1O6ODZP8NI3DZ3Ox+6ll+MaktH3bjHZyEcMtw81hGJuPcfju9/77uJvJOfoazrPC1efVBHJOkvz2dwBU/x68e7yz/ROuJRha8AZwHTcaOC5wwUGv84LzQLzICwIlcaECXJt1viKgZWn4Oiw1GCwQd7z4v/WCoggJpAoqHhlJvmfltJYlT7dLzFMFPJEQ2SEBOmEovq4hwEQCD9VrWeJGgUiIowrdkOuLkha7D8BLXEUNn5aPByTjPxy/THni6c4U/4Wh9PNG2ynTPoXbLIu74LE4D7br/N59/h8uWnfklzRufwA=);strokeColor=none;spacingTop=-3;spacingBottom=-3;spacingLeft=-3;spacingRight=-3;points=[];labelBackgroundColor=none;rounded=0;html=1;whiteSpace=wrap;strokeWidth=1;fontSize=18;" parent="72" vertex="1">
                    <mxGeometry x="33.09632218168114" y="2.0297176820208023" width="13.445380886307962" height="80.17384843982168" as="geometry"/>
                </mxCell>
                <mxCell id="80" style="vsdxID=63;fillColor=#2d5967;gradientColor=none;shape=stencil(nZPbDoMgDIafhtsGCipcO/ceJuokc2LQnd5+OrJMZtSwu1K+tj+lJTzt67wrCdJ+sOZc3nUx1IQfCKJu69LqYbQIzwhPK2PLkzXXtnDnLp/IybqY25Th4eIYBxRTFNKn8wgK8u04Or7R7ZyXIJjHYwJsnUcOSeTxDEHFmwVk7AXQdVhCjAFiqP9QBYoH5E5G4SG6Gd1QvuyLTICKkMbv6Fl8bKQAN5rzkfsnvjM2oWO2y4/Gd6Yr3TRuJeb3vzswutz+8OwF);strokeColor=none;spacingTop=-3;spacingBottom=-3;spacingLeft=-3;spacingRight=-3;points=[];labelBackgroundColor=none;rounded=0;html=1;whiteSpace=wrap;strokeWidth=1;fontSize=18;" parent="72" vertex="1">
                    <mxGeometry x="41.37040272710142" y="35.52005943536404" width="36.199102386213745" height="13.193164933135215" as="geometry"/>
                </mxCell>
                <mxCell id="81" style="vsdxID=64;fillColor=#2d5967;gradientColor=none;shape=stencil(nZPbDoMgDIafhtsGioBcO/ceJuIkc2rUnd5+OmLmIWLcXSnfX/6UlvCozZPaEKRt11RX87RplxN+Ioi2zE1juz4iPCY8yqrGXJrqXqbuXCcDOUS36jFUeDldKEHJQYX07TJCA7Jv5uwEhS2nAgZCzwQKQW/zSgKKGR8qoIH3ARbMBIzSbVwLYDNaIoQeP2OxEQ80aH6gPFfA/O1ZuPd4X/eG9b2UR5qPCnxuVr8bUAi3efo3uzc1h8dsX9AHv6nObFG4pZjeL7egT7kN4vEH);strokeColor=none;spacingTop=-3;spacingBottom=-3;spacingLeft=-3;spacingRight=-3;points=[];labelBackgroundColor=none;rounded=0;html=1;whiteSpace=wrap;strokeWidth=1;fontSize=18;" parent="72" vertex="1">
                    <mxGeometry x="1.0342600681775356" y="35.52005943536404" width="36.199102386213745" height="13.193164933135215" as="geometry"/>
                </mxCell>
                <mxCell id="45" value="" style="shape=image;verticalLabelPosition=bottom;verticalAlign=top;imageAspect=0;aspect=fixed;image=data:image/svg+xml,PHN2ZyB4bWxucz0iaHR0cDovL3d3dy53My5vcmcvMjAwMC9zdmciIHhtbG5zOnhsaW5rPSJodHRwOi8vd3d3LnczLm9yZy8xOTk5L3hsaW5rIiB2ZXJzaW9uPSIxLjEiIGlkPSJMYXllcl8xIiB4PSIwcHgiIHk9IjBweCIgdmlld0JveD0iMCAwIDQzLjUgNDIiIHN0eWxlPSJlbmFibGUtYmFja2dyb3VuZDpuZXcgMCAwIDQzLjUgNDI7IiB4bWw6c3BhY2U9InByZXNlcnZlIiB3aWR0aD0iNDMuNSIgaGVpZ2h0PSI0MiI+JiN4YTs8Zz4mI3hhOwk8Zz4mI3hhOwkJPHBhdGggc3R5bGU9ImZpbGw6I0ZGRkZGRjsiIGQ9Ik0zMS4yLDQxLjVjLTIuOCwwLTUuMy0yLTUuOS00LjhoLTcuMWMtMC42LDIuNy0zLDQuOC01LjksNC44Yy0zLjMsMC02LTIuNy02LTYmIzEwOyYjOTsmIzk7JiM5O2MwLTIuMSwxLjItNC4xLDMtNS4ybC0yLjItNi43Yy0wLjIsMC0wLjQsMC0wLjYsMGMtMy4zLDAtNi0yLjctNi02YzAtMy4zLDIuNy02LDYtNmMxLjUsMCwyLjksMC41LDQsMS42TDE2LjMsOSYjMTA7JiM5OyYjOTsmIzk7Yy0wLjMtMC44LTAuNS0xLjYtMC41LTIuNWMwLTMuMywyLjctNiw2LTZzNiwyLjcsNiw2YzAsMC44LTAuMiwxLjctMC41LDIuNWw1LjcsNC4yYzEuMS0xLDIuNS0xLjYsNC0xLjZjMy4zLDAsNiwyLjcsNiw2JiMxMDsmIzk7JiM5OyYjOTtzLTIuNyw2LTYsNmMtMC4yLDAtMC40LDAtMC42LDBsLTIuMiw2LjdjMS44LDEuMSwzLDMuMSwzLDUuMkMzNy4yLDM4LjgsMzQuNSw0MS41LDMxLjIsNDEuNXoiLz4mI3hhOwkJPHBhdGggc3R5bGU9ImZpbGw6I0ZGRkZGRjsiIGQ9Ik0yMS43LDFjMywwLDUuNSwyLjUsNS41LDUuNWMwLDAuOS0wLjIsMS44LTAuNywyLjZsNi40LDQuN2MxLTEuMSwyLjQtMS43LDQtMS43JiMxMDsmIzk7JiM5OyYjOTtjMywwLDUuNSwyLjUsNS41LDUuNWMwLDMtMi41LDUuNS01LjUsNS41Yy0wLjMsMC0wLjcsMC0xLTAuMWwtMi41LDcuNWMxLjgsMC45LDMuMSwyLjgsMy4xLDVjMCwzLTIuNSw1LjUtNS41LDUuNSYjMTA7JiM5OyYjOTsmIzk7Yy0yLjgsMC01LjEtMi4xLTUuNS00LjhoLTcuOWMtMC40LDIuNy0yLjcsNC44LTUuNSw0LjhjLTMsMC01LjUtMi41LTUuNS01LjVjMC0yLjIsMS4zLTQuMSwzLjEtNUw3LjUsMjNjLTAuMywwLjEtMC43LDAuMS0xLDAuMSYjMTA7JiM5OyYjOTsmIzk7Yy0zLDAtNS41LTIuNS01LjUtNS41czIuNS01LjUsNS41LTUuNWMxLjYsMCwzLDAuNyw0LDEuN2w2LjQtNC43Yy0wLjQtMC44LTAuNy0xLjctMC43LTIuNkMxNi4yLDMuNSwxOC43LDEsMjEuNywxIE0yMS43LDAmIzEwOyYjOTsmIzk7JiM5O2MtMy42LDAtNi41LDIuOS02LjUsNi41YzAsMC44LDAuMSwxLjYsMC40LDIuM2wtNS4xLDMuN2MtMS4xLTAuOS0yLjYtMS40LTQtMS40QzIuOSwxMS4xLDAsMTQsMCwxNy42czIuOSw2LjUsNi41LDYuNSYjMTA7JiM5OyYjOTsmIzk7YzAuMSwwLDAuMiwwLDAuMywwbDEuOSw2Yy0xLjgsMS4yLTIuOSwzLjItMi45LDUuNGMwLDMuNiwyLjksNi41LDYuNSw2LjVjMi45LDAsNS41LTIsNi4zLTQuOGg2LjNjMC44LDIuOCwzLjMsNC44LDYuMyw0LjgmIzEwOyYjOTsmIzk7JiM5O2MzLjYsMCw2LjUtMi45LDYuNS02LjVjMC0yLjItMS4xLTQuMi0yLjktNS40bDEuOS02YzAuMSwwLDAuMiwwLDAuMywwYzMuNiwwLDYuNS0yLjksNi41LTYuNWMwLTMuNi0yLjktNi41LTYuNS02LjUmIzEwOyYjOTsmIzk7JiM5O2MtMS41LDAtMi45LDAuNS00LjEsMS40bC01LjEtMy43YzAuMy0wLjcsMC40LTEuNSwwLjQtMi4zQzI4LjMsMi45LDI1LjMsMCwyMS43LDBMMjEuNywweiIvPiYjeGE7CTwvZz4mI3hhOwk8Zz4mI3hhOwkJPHBhdGggc3R5bGU9ImZpbGw6I0JCNTAxQzsiIGQ9Ik0zNywxMi4xYy0xLjYsMC0zLDAuNy00LDEuN2wtNi40LTQuN2MwLjQtMC44LDAuNy0xLjcsMC43LTIuNmMwLTMtMi41LTUuNS01LjUtNS41JiMxMDsmIzk7JiM5OyYjOTtzLTUuNSwyLjUtNS41LDUuNWMwLDAuOSwwLjIsMS44LDAuNywyLjZsLTYuNCw0LjdjLTEtMS0yLjQtMS43LTQtMS43Yy0zLDAtNS41LDIuNS01LjUsNS41czIuNSw1LjUsNS41LDUuNWMwLjMsMCwwLjcsMCwxLTAuMSYjMTA7JiM5OyYjOTsmIzk7bDIuNCw3LjVjLTEuOCwwLjktMy4xLDIuOC0zLjEsNWMwLDMsMi41LDUuNSw1LjUsNS41YzIuOCwwLDUuMS0yLjEsNS41LTQuOGg3LjljMC40LDIuNywyLjcsNC44LDUuNSw0LjhjMywwLDUuNS0yLjUsNS41LTUuNSYjMTA7JiM5OyYjOTsmIzk7YzAtMi4yLTEuMy00LjEtMy4xLTVMMzYsMjNjMC4zLDAuMSwwLjcsMC4xLDEsMC4xYzMsMCw1LjUtMi41LDUuNS01LjVTNDAsMTIuMSwzNywxMi4xeiBNMzEuMiwzOS41Yy0yLjIsMC00LTEuOC00LTQmIzEwOyYjOTsmIzk7JiM5O2MwLTIuMiwxLjgtNCw0LTRzNCwxLjgsNCw0QzM1LjIsMzcuNywzMy40LDM5LjUsMzEuMiwzOS41eiBNMTcuOCwzNC44Yy0wLjItMS4zLTAuOC0yLjQtMS43LTMuM2wzLTQuMmMwLjgsMC40LDEuNywwLjcsMi42LDAuNyYjMTA7JiM5OyYjOTsmIzk7YzAuOSwwLDEuOC0wLjIsMi42LTAuN2wzLDQuMmMtMC45LDAuOC0xLjUsMi0xLjcsMy4zSDE3Ljh6IE04LjMsMzUuNWMwLTIuMiwxLjgtNCw0LTRzNCwxLjgsNCw0YzAsMi4yLTEuOCw0LTQsNCYjMTA7JiM5OyYjOTsmIzk7UzguMywzNy43LDguMywzNS41eiBNNi41LDEzLjVjMi4yLDAsNCwxLjgsNCw0cy0xLjgsNC00LDRzLTQtMS44LTQtNFM0LjMsMTMuNSw2LjUsMTMuNXogTTE3LjcsNi41YzAtMi4yLDEuOC00LDQtNHM0LDEuOCw0LDQmIzEwOyYjOTsmIzk7JiM5O3MtMS44LDQtNCw0UzE3LjcsOC43LDE3LjcsNi41eiBNMzEuNiwxOC41bC00LjksMS42Yy0wLjgtMS42LTIuNC0yLjgtNC4yLTMuMVYxMmMxLjMtMC4yLDIuNC0wLjgsMy4yLTEuN2w2LjQsNC43JiMxMDsmIzk7JiM5OyYjOTtjLTAuNCwwLjgtMC43LDEuNy0wLjcsMi42QzMxLjUsMTcuOSwzMS41LDE4LjIsMzEuNiwxOC41eiBNMjUuOCwyMi41YzAsMi4yLTEuOCw0LTQsNHMtNC0xLjgtNC00czEuOC00LDQtNFMyNS44LDIwLjIsMjUuOCwyMi41eiYjMTA7JiM5OyYjOTsmIzk7IE0yMSwxMlYxN2MtMS45LDAuMy0zLjUsMS40LTQuMiwzLjFsLTQuOS0xLjZjMC4xLTAuMywwLjEtMC42LDAuMS0xYzAtMC45LTAuMi0xLjgtMC43LTIuNmw2LjQtNC43QzE4LjYsMTEuMiwxOS43LDExLjgsMjEsMTJ6JiMxMDsmIzk7JiM5OyYjOTsgTTExLjUsMTkuOWw0LjksMS42Yy0wLjEsMC4zLTAuMSwwLjYtMC4xLDFjMCwxLjYsMC43LDMsMS43LDRsLTMsNC4yYy0wLjgtMC40LTEuNy0wLjctMi42LTAuN2MtMC4zLDAtMC43LDAtMSwwLjFsLTIuNC03LjUmIzEwOyYjOTsmIzk7JiM5O0MxMCwyMiwxMC45LDIxLjEsMTEuNSwxOS45eiBNMzEuMiwzMGMtMC45LDAtMS44LDAuMi0yLjYsMC43bC0zLTQuMmMxLjEtMSwxLjctMi40LDEuNy00YzAtMC4zLDAtMC43LTAuMS0xbDQuOS0xLjYmIzEwOyYjOTsmIzk7JiM5O2MwLjUsMS4xLDEuNSwyLDIuNiwyLjZsLTIuNSw3LjVDMzEuOCwzMCwzMS41LDMwLDMxLjIsMzB6IE0zMywxNy42YzAtMi4yLDEuOC00LDQtNHM0LDEuOCw0LDRzLTEuOCw0LTQsNFMzMywxOS44LDMzLDE3LjZ6Ii8+JiN4YTsJPC9nPiYjeGE7PC9nPiYjeGE7PC9zdmc+;dashed=1;dashPattern=1 1;strokeColor=#bb511c;strokeWidth=3;fontColor=#AE562C;fontFamily=Helvetica;fontSize=12;fillColor=#FCFBFA;" parent="43" vertex="1">
                    <mxGeometry x="527.4726347705431" y="598.77" width="73.77" height="70.41" as="geometry"/>
                </mxCell>
                <mxCell id="70" value="" style="shape=image;verticalLabelPosition=bottom;verticalAlign=top;imageAspect=0;aspect=fixed;image=data:image/svg+xml,PHN2ZyB4bWxucz0iaHR0cDovL3d3dy53My5vcmcvMjAwMC9zdmciIHhtbG5zOnhsaW5rPSJodHRwOi8vd3d3LnczLm9yZy8xOTk5L3hsaW5rIiB2ZXJzaW9uPSIxLjEiIGlkPSJMYXllcl8xIiB4PSIwcHgiIHk9IjBweCIgdmlld0JveD0iMCAwIDMyLjM5OTk5NzcxMTE4MTY0IDQyLjE5OTk5Njk0ODI0MjE5IiBzdHlsZT0iZW5hYmxlLWJhY2tncm91bmQ6bmV3IDAgMCAzMi4zIDQyLjI7IiB4bWw6c3BhY2U9InByZXNlcnZlIiB3aWR0aD0iMzIuMzk5OTk3NzExMTgxNjQiIGhlaWdodD0iNDIuMTk5OTk2OTQ4MjQyMTkiPiYjeGE7PGc+JiN4YTsJPGc+JiN4YTsJCTxwYXRoIHN0eWxlPSJmaWxsOiNGRkZGRkY7IiBkPSJNMTUuOCw0MS41QzgsMzguNiw0LjMsMzMuNiwyLjUsMjkuOGMtMi00LjMtMi03LjktMi04LjFWNy4zbDE1LjctNi43bDE1LjYsNi43djE0LjUmIzEwOyYjOTsmIzk7JiM5O2MwLDAuNi0wLjIsMTQuMi0xNS4xLDE5LjdsLTAuNCwwLjJMMTUuOCw0MS41eiIvPiYjeGE7CQk8cGF0aCBzdHlsZT0iZmlsbDojRkZGRkZGOyIgZD0iTTE2LjIsMS4xbDE1LjEsNi41djE0LjJjMCwwLjYtMC4yLDEzLjgtMTQuOCwxOS4ybC0wLjMsMC4xTDE2LDQxQzguMywzOC4yLDQuNywzMy4zLDMsMjkuNiYjMTA7JiM5OyYjOTsmIzk7Yy0xLjktNC4xLTItNy43LTItNy44VjcuNkwxNi4yLDEuMSBNMTYuMiwwbC0wLjQsMC4yTDAuNiw2LjdMMCw2Ljl2MC43djE0LjJjMCwwLjIsMCwzLjksMi4xLDguM2MxLjgsMy44LDUuNiw5LDEzLjYsMTEuOSYjMTA7JiM5OyYjOTsmIzk7bDAuMywwLjFsMC4zLDAuMWwwLjMtMC4xbDAuMy0wLjFjMTUuMy01LjYsMTUuNS0xOS42LDE1LjUtMjAuMlY3LjZWNi45bC0wLjYtMC4zTDE2LjYsMC4yTDE2LjIsMEwxNi4yLDB6Ii8+JiN4YTsJPC9nPiYjeGE7CTxnPiYjeGE7CQk8cGF0aCBzdHlsZT0iZmlsbDpub25lOyIgZD0iTTIuNSw4LjZ2MTMuMmMwLDAuMSwwLDMuNCwxLjgsNy4yYzIuMyw0LjksNi4zLDguNCwxMS45LDEwLjVjMTMuNC01LjEsMTMuNi0xNy4yLDEzLjYtMTcuN1Y4LjYmIzEwOyYjOTsmIzk7JiM5O0wxNi4yLDIuN0wyLjUsOC42eiBNMTYuMSwyOC4zSDd2LTEuNWg5LjFWMjguM3ogTTE2LjEsMjEuNUg3VjIwaDkuMVYyMS41eiBNMTYuMSwxNC4ySDd2LTEuNWg5LjFWMTQuMnogTTIwLjIsMTIuN2wxLjIsMS4ybDMtMyYjMTA7JiM5OyYjOTsmIzk7bDEsMWwtNCw0bC0yLjItMi4yTDIwLjIsMTIuN3ogTTI0LjgsMjIuMmwtMSwxbC0xLjUtMS41bC0xLjUsMS41bC0xLTFsMS41LTEuNWwtMS41LTEuNWwxLTFsMS41LDEuNWwxLjUtMS41bDEsMWwtMS41LDEuNSYjMTA7JiM5OyYjOTsmIzk7TDI0LjgsMjIuMnogTTIwLjIsMjYuOGwxLjIsMS4ybDMtM2wxLDFsLTQsNGwtMi4yLTIuMkwyMC4yLDI2Ljh6Ii8+JiN4YTsJCTxwYXRoIHN0eWxlPSJmaWxsOiNCQjUwMUM7IiBkPSJNMTYuMiwxLjFMMSw3LjZ2MTQuMmMwLDAuMSwwLDMuNywyLDcuOGMxLjcsMy43LDUuNCw4LjYsMTMsMTEuNGwwLjMsMC4xbDAuMy0wLjEmIzEwOyYjOTsmIzk7JiM5O2MxNC42LTUuNCwxNC44LTE4LjcsMTQuOC0xOS4yVjcuNkwxNi4yLDEuMXogTTI5LjgsMjEuOGMwLDAuNS0wLjIsMTIuNi0xMy42LDE3LjdDMTAuNiwzNy40LDYuNiwzMy45LDQuMywyOSYjMTA7JiM5OyYjOTsmIzk7Yy0xLjgtMy45LTEuOC03LjEtMS44LTcuMlY4LjZsMTMuNy01LjlsMTMuNiw1LjlWMjEuOHoiLz4mI3hhOwkJPHJlY3QgeD0iNyIgeT0iMTIuNyIgc3R5bGU9ImZpbGw6I0JCNTAxQzsiIHdpZHRoPSI5LjEiIGhlaWdodD0iMS41Ii8+JiN4YTsJCTxwb2x5Z29uIHN0eWxlPSJmaWxsOiNCQjUwMUM7IiBwb2ludHM9IjI1LjQsMTIgMjQuMywxMSAyMS40LDEzLjkgMjAuMiwxMi43IDE5LjEsMTMuOCAyMS40LDE2ICYjOTsmIzk7Ii8+JiN4YTsJCTxyZWN0IHg9IjciIHk9IjIwIiBzdHlsZT0iZmlsbDojQkI1MDFDOyIgd2lkdGg9IjkuMSIgaGVpZ2h0PSIxLjUiLz4mI3hhOwkJPHBvbHlnb24gc3R5bGU9ImZpbGw6I0JCNTAxQzsiIHBvaW50cz0iMjMuOCwxOC4xIDIyLjMsMTkuNyAyMC43LDE4LjEgMTkuNywxOS4yIDIxLjIsMjAuNyAxOS43LDIyLjIgMjAuNywyMy4zIDIyLjMsMjEuOCAmIzEwOyYjOTsmIzk7JiM5OzIzLjgsMjMuMyAyNC44LDIyLjIgMjMuMywyMC43IDI0LjgsMTkuMiAmIzk7JiM5OyIvPiYjeGE7CQk8cmVjdCB4PSI3IiB5PSIyNi44IiBzdHlsZT0iZmlsbDojQkI1MDFDOyIgd2lkdGg9IjkuMSIgaGVpZ2h0PSIxLjUiLz4mI3hhOwkJPHBvbHlnb24gc3R5bGU9ImZpbGw6I0JCNTAxQzsiIHBvaW50cz0iMjUuNCwyNi4xIDI0LjMsMjUuMSAyMS40LDI4IDIwLjIsMjYuOCAxOS4xLDI3LjkgMjEuNCwzMC4xICYjOTsmIzk7Ii8+JiN4YTsJPC9nPiYjeGE7PC9nPiYjeGE7PC9zdmc+;dashed=1;dashPattern=1 1;strokeColor=#bb511c;strokeWidth=3;fontColor=#AE562C;fontFamily=Helvetica;fontSize=12;fillColor=#FCFBFA;" parent="43" vertex="1">
                    <mxGeometry x="504.4189778508659" y="250" width="49.39" height="64.81" as="geometry"/>
                </mxCell>
                <mxCell id="113" value="" style="group" parent="43" vertex="1" connectable="0">
                    <mxGeometry x="-32.81707196327321" y="588.9965973254086" width="72.63608458810833" height="71.04011887072807" as="geometry"/>
                </mxCell>
                <mxCell id="94" style="vsdxID=44;fillColor=#FFFFFF;gradientColor=none;shape=stencil(jVjLchQxDPyavaosv2SfefwHBYFsERJqCRD+Hi0zlsc9GS+3jSK7ZVlSt+cU3vy4//D97uTdj+fL09e73+dPz/en8Pbk/fnx/u5yftZfp/DuFN58frrcfbk8/Xz8tPz9/cPV8/rr29Ov6w4vy7oUSeS6yrs/i6VWqvWf5f2y4OPPy7KCF4coVP26ZDWxc4vhxa8+TJxXn9VUC8XVKSyWkMi1jVZTTRRm2L5QqSN29eR5RPeBUhrRi5DwCM+VYhzhi29hH+CzkIsjfnEU64jPkQqP+FIoA7zvmV9NkilN0Zkkj+iSKAmgOypweomWEIN3u+RLoDjFr5QDwHuqAC9mMXRH4kd0ocwArvHwDFzIpxE8VwqM4AxHVydfRvBMFe49W1mt4A/nx02TZPKt6FaDUPGzYOGW1B8jTZQLRJrbphZpogh3pE5hmqbUM9DAExXEdlCe6gP1ES0Yg9ZlkyRFslOv/gGSuhskvQLZlkTIUyDBPHmbPzZJrAksWN92OgAPFDBPbLOlg3vAZooFsV0AbAcTdEyUb6le85QqybTtvBVPCzVtirrNPOI4xpoKQahMtYyhqs+60dHI6ZOsYYvNLZs4lCtgi83/Dp6g61KmfJwmttyv3ql14WGoUE3KbQUitZvpkUaKYYzUdY5pkYYbnKgTDmgpdQ7q4DY+G7h/BTxBOSVuO72aJ0dhHE5JCWlKYpsVbEvYY7AexnisWE/qAzNCfW5hOxmxYzFKNWwAVloE7nYAGxvpHMNCGQftW7gflUIj8LWwYdJw2NGmmnhaHLoNzprYWr6PGk8ZGrgH/dLPGYE33Qw56ugHxkahpswERekAs+yYwO79dSKoJrX+WMHFY38tPh+n/juOU3VZ4FhtSSe5/UTU3qrj4bRLXcHDSZkEG9tlt2B5mgz1zwL+Nw6nVAzygc1ih1MZAPq6a0M7nOwON4u09EpolDJS6M7f6sKIbZI5pU437h9uUHTeUIaxdgZ9oERvDWmsXUDM5M65Jm+cTGL1+Cq64b8R/CaxZv65KW0TS9NEiI1nEys2wy0RnZdNrZh2skTYI8x0NwwvCLR2wlwsBVh49Be2wdaek430jmS974Rnr8ndi06fJh7r3e2uWb1Q2bPV0BF+7mXZ8ENn5YYvfeeGr30K5CB6WKgzfTDKVGDpwzTB3WoBM+iWqiHB5QZnaq7h19wVRqtzJZFpbVVjdeOmSgzHt/f9RltWGKVV7NY2z6o5M9YuvuxFKbvKLiZk7TWfrH8afGFLmn1MMNPR3Ydd7jWF+AjQ5kYpdP1GArnffkgJ3WvSK//x6UV/9A83n88PD8t3n+3/8UOPmpaPROHdXw==);strokeColor=none;spacingTop=-3;spacingBottom=-3;spacingLeft=-3;spacingRight=-3;points=[];labelBackgroundColor=none;rounded=0;html=1;whiteSpace=wrap;strokeWidth=1;fontSize=18;" parent="113" vertex="1">
                    <mxGeometry x="0.8545421716248012" y="0.8457157008419927" width="70.9270002448587" height="69.3486874690441" as="geometry"/>
                </mxCell>
                <mxCell id="95" style="vsdxID=45;fillColor=#FFFFFF;gradientColor=none;shape=stencil(lVrbklQ3DPyafXX5fnkm5D+osIStEJZaIIG/j05mJNmtPT7J2zDI27YstVryPKQ3Xz+++/L4EP3Xby/Pfzz+/fT+28eH9MtDjE+fPz6+PH2jTw/p7UN68+H55fH3l+fvn9/f/v3l3WF5fPrz+a/jL/y4rcvZjXysiv7n7Zvo0vj3i19v9r99f7ktCPcV1aVyXxFgif8R70bNtXo3imyU79/8SHej4QIbJTaqM/anp8/TXot3JcBe23avJbicca8jrHsttP287jU5n9a9luRiXvdK38QteOLdCbgsUfDsUkDw3AE8u14QfOeo5mJaHJVd3Jh31zOYt7Y92nClr0cr6rL7Oap3caxHKy629Wg1rOcqrmwOVik+1p1SMG7Ms6uLNfml7M5ViwsQ282VDOcqrrb1XE3uR85VXRjr0TpH+xl4dS2u4N3lBuDN5bKCdzcAuzsP4TJc7Fvsro4NvKRWwB7Ow8GHG3ihg29QwIN3Ke3Qm3e+rui0pgKnkBWghyAEwvAtSIgJfHB1E/0taQbeF9A325tqxSUI/1BMajeKNuDA0CQlZMN0fQk2PJjnTvB71otgWiNeA3/1rrtkDp6imSMjaCozt0TXt+k/iB/g/KlLvDP+qMp/XBay5JfgN4lx4YCreBkEBtFaqtQGwZ/+MkdwZGJT/OIyJOqRDNv7H8kVyNSWJewF3/Jfo3yB8/cqxClEkblUnt1/kGMIU3TNRAarerO8pSiHlfjzrgP+uKJ/YkAP90/O9nD+IsQk8F2N+K7pRhC+uS06CZBSDHoCls4kFhLAE3FDWU/TSZL4qG5FxcGMacXvQ+QO41MN7eD9XpRSWe8Qg0H0d2K+LVcHKtdhxae44mMwfqiugrA4CAmyP2TmRsEnctvKmnlJgCWKHkXECHqUbQt6dB7qP1nFrfeJzQt4nzgfvU/lw8cVnwpTRe7ToqepP7bwQzldSyfrYcl8QG6isSXrpboJMrHV1u/d1BwSDB1rpAm6Q4hA0DdlLwYXEjyreBqmDJ5FNIo+EHITcFK3cQWv9uSkk/OWblyGG6clAYWR0qiSfUYVz0gKHi7Ai7QtAh5EXgnVqehQ8ZsLgiPRk4zu20JPPl6xi7ZMQnSG54h4C3hd70GwRbOeYgdgGVoSgGWSdo8Mru2hkKxrIEdLYXI6AU8qIhk8syiZwDPk+NFNDQSPQPBHX7YtMMmqi6S6RdrZgc1NcAPpXfYs4BI8Z9VFlzC4l3qn4BXBvQal9tIQ7NRwlwtwDPZMUisiOMpKqsimsKkRgxeOnnNwCLiUXuMYqGrHTUC/HKbaq1+NraY6HI+JrrQdZUPVjjUw16aRinpjode1A7mewVzNbPw2nHWawSejYIGTxaBVXYjF1GtKJqjXIV10ltkMQaJQrqDrfn6qpyOg+/8ZT36FzdpeT7AYyV3qu8CawQ+l0X7sNC3RHEYCmYw0hwtiYxaRTd/WK2/kUQmmWHqTwmQUL7HDNoynBWLfL/yEkobagWr8VKC2EhvnjJvFwk6lIG5Z3juISypKISA2KprDCAIkaDP+X8tb0OGQ9q/YPwUzbTmMMCVNdJJRXMDXWwrmlio3gKebxWa3NCU92SwSIxmNgZvFMeYhVba3FJUZJgmE5KXujGJUoNG3FYk0mm/nnoqujMVTZF/zzn51bJW7OT3bsNKywRR1EiOqayPkatKRfBKjfRdrFVa102mqv1AUVKxP2tLDwI9k/zpnhXqnuxX7tquP2sne7YtL+xGBKTq0BKRrNgKOWiV0rE715GyVu//ThqGAjKHWDkV7sY5tRkNVkV5Te7rWPJh3a6Mk9nVr31YdQT3yvqZW0VpyuCFpok0opmO1c+Jpjq2TqLRVp801nHt4ky+6HRk86IBXiGgaDySx2vditAaVectGIYagwxnGL5YIo764MH69EKiHqAUebuD4APWi62xPkIc+dvEsIvJVnPFU0u6RhxHN9iTdPKONic6YqSxbHOPGLVMNM20eTZ5gJJ2rEXNjCOVP40acfZDVnimPOSbMG4P3K3otRlENWgZs0gI/LCh6vZj1Nx1tyumpNV/h6Qob+t6b6Udv9k2qXIw/6ArNsNPOP0Yx4zaKehyA0K0FmIAQMVyM+oc+ZU51CuKer2MSShVSbgqGSUvvnwPpChv2wwnryPHMAXmXmj4GMHySlxd5ZgkcV2fwXl+mOBWrGXTTFQ7w/SHZ4Oq9vlkyEzQey5xFXjf6JBSdLOlQ2YPyo54Qr/5gSvsst5d+tAZunigYH++JtpHvj+dGQLd0O5iZXn8TDNoy3x0IigMK6dBRFNeqywdXLKRmvlW71X7m/YZ0A0o/bmPO35lx0lFMGSUj0yKarusQVeb9PmyU36Ee8YcJYfeAr52e2PtNc1PXS7h6xz0UOngiGW6r0pXryKfBJRR9/9GRT9kc7Ghi2rLX/YjomNauzUjgZ+OzqtXM/DaYJ/VjWAvDY0MdpZiSGZiXXt9rQX1/YT9N69h+F0TH/Ha9Z89/4MwXU3mU7t/4Ihgenwav0/gFnCF19uw3S6nBZnf2eVj7uH8jmN581snXJI0wl/16rFdGln6zx/38kT7or80+PH36dPux2vz/+Os0+ur2y7b09h8=);strokeColor=none;spacingTop=-3;spacingBottom=-3;spacingLeft=-3;spacingRight=-3;points=[];labelBackgroundColor=none;rounded=0;html=1;whiteSpace=wrap;strokeWidth=1;fontSize=18;" parent="113" vertex="1">
                    <mxGeometry width="72.63608458810833" height="71.04011887072808" as="geometry"/>
                </mxCell>
                <mxCell id="96" style="vsdxID=46;fillColor=#2d5967;gradientColor=none;shape=stencil(lZXRbsIwDEW/pq9WEidx8sy2/0CjjGoMUIGt/P3SJU2xEZX2Fozd02vfuA2uzrv1qW2MOl/642f7020uuwZfGmO6w67tu0s6Nfja4Gp77NuP/ng9bPLv03rMHE9fx+/xCUOu0wjGjVVG3XIkONDxL/KWC96vfa7QJQFoqigRIkCdQ4PJIQ+25EyBANaUHKw5JXIrERcBwxI7lSBnOwVoOTu9YORwq8FaDh+FE6cjgnNLdE1AnuONA+843lgwyPk6gtKcjwaU53ydCv0SHyOEyPkRnOi8DRAE3kPgcBdAidZPA3vWeAJjONpzLnlA4lyCKFQHC1K0hrgoOsT6lImsDRBxenSgxNDHdhLHa6UEPcnWi/RkJqHbAQUhHauqElGi36kTgZOTbXEJbA2g8Jp6tBrV8c89n2w1zBqF0XUAvWh09+CzZLTJ1APXWO+YrRMYpMb7C24XfZY0EieTrde59nvaUBUe6uKYZaeFI3WX8T+73h5U4PBkK7nZkq3QcHqchd6vF8fpD4t13x3+t4nTYd7j226/z5+B+//l3k+h/M3A118=);strokeColor=none;spacingTop=-3;spacingBottom=-3;spacingLeft=-3;spacingRight=-3;points=[];labelBackgroundColor=none;rounded=0;html=1;whiteSpace=wrap;strokeWidth=1;fontSize=18;" parent="113" vertex="1">
                    <mxGeometry x="0.8545421716248012" y="0.8457157008419927" width="52.12707246911303" height="52.43437345220406" as="geometry"/>
                </mxCell>
                <mxCell id="97" style="vsdxID=47;fillColor=#2d5967;gradientColor=none;shape=stencil(jZbdchshDIWfxrcakBCg6zR9j0zj1J66ccZx2vTtq+0usGhj0rtdLPazfs6BHd29Hh5e9jt0r9fL+cf+9/HxetjRlx3i8fmwvxyv+rSj+x3dPZ0v+++X89vz4/z+8jBFTk8/z7+mL7zP+9gBhWkXuj/zivv39nUO/vZ2maP9/GNwwHEJX5YcOJpX3nFeIb9ELO8IwksELSsIOS9By1KGMAL7AMmAPUGOPVk/QobtgaWH65d6NDmINII7kNSzSSDmnu16cNAI7MEeBHsyCyCOyJoi9eSYIXubNYcentIWzhBiT8+hbLxB1zZR7vHi62dau8FLz5cIPpmqO0im5ZLB5RF/Gk7D98719KgxaOjSRnJBRQEy2QvDsOlJh8lvkufU47NmaoqfGTD0eN1o6NohP+y8JHBsWi89W/Osc4l1oIJh14oV9DSZcai1uqNMYYRg2aoiw8aVHqmWInBPVyEzD+u+qmiZA0BjMZGAjcu4Hr02NvrA2U7H5/+3wc88U6uRh5McfJs/b/c0JWE1qzrLWByimSeX0WlKTqVCt1qaSs8rP2Mb0wXmPWTrJAoz5r3SRVFXhDzsaQAxOuZcD5JCD8UN1h4ajJC5GWIzlrF7J2ADV8fKtEld7LFFkKyWMqARslaWZGiiAaLxEYUVba9ab+QUIZncdYiMmGpdBwZq2LTREsvm1AzgrYGm+neqhRUzvC1kh9vE7eFF4E3hfWztKTOnR4X0eP2Tw7YLgbOntq+mVX2MW15YB4qtf2uUkZzOJo8NXPeY2kdfvK/xXbsUFMlRFUJNHzeay/Vic6v8BNLjleWMjUc94c3cTb5kzu4PvHTjeJ/56WaDPrRL6dPxdJrvtOvf7SVWl+YLMN3/BQ==);strokeColor=none;spacingTop=-3;spacingBottom=-3;spacingLeft=-3;spacingRight=-3;points=[];labelBackgroundColor=none;rounded=0;html=1;whiteSpace=wrap;strokeWidth=1;fontSize=18;" parent="113" vertex="1">
                    <mxGeometry x="8.545421716248038" y="8.45715700842004" width="62.381578528610675" height="61.737246161466075" as="geometry"/>
                </mxCell>
                <mxCell id="98" style="vsdxID=48;fillColor=#2d5967;gradientColor=none;shape=stencil(lZPbDoMgDIafhtsGqCeu3fYeJuIkc2LQnd5+MrLMQ5Rx18L/NT8tJZj3ddFJwmk/GH2RD1UONcED4Vy1tTRqGCOCR4J5pY08G31rS5d3hVXa6KrvtsLTcYxSy3D6cnkWQZJ8Tk5O3qh2Is9SYDgHKCTZNhALYGIOCOBxCMAopDvA2hITgHwbWD6ZxYDRjqG5mm4rg8oyDkKE2I4oCAxpzBrwtH5tyTPcoK+z6ON3Cn+NyFPaKx+D3wJUqmnc/kzvlwszHrllw+Mb);strokeColor=none;spacingTop=-3;spacingBottom=-3;spacingLeft=-3;spacingRight=-3;points=[];labelBackgroundColor=none;rounded=0;html=1;whiteSpace=wrap;strokeWidth=1;fontSize=18;" parent="113" vertex="1">
                    <mxGeometry x="32.472602521742544" y="16.068598315997974" width="13.672674745996861" height="44.82293214462606" as="geometry"/>
                </mxCell>
                <mxCell id="99" style="vsdxID=49;fillColor=#2d5967;gradientColor=none;shape=stencil(nZJbDoMgFERXwy+5Qin029p9mIiVlIJB+tp9ocTUatTYv/s4czOEQTTvmrKViEDnnb3Ih6p8g+gREaJMI53yoUK0QDSvrZNnZ2+mSn1bRjJWV3uPF55Jt+eYsKgi8EqTDODTnxKulRng/bKH2QI7Pb0AM4H5yAfBgs8LOMfwK9gBFtm8AP6H2QHDJisrguljRTixYGfjL63iofgGolZapzwN9+MAhVEKHy3e);strokeColor=none;spacingTop=-3;spacingBottom=-3;spacingLeft=-3;spacingRight=-3;points=[];labelBackgroundColor=none;rounded=0;html=1;whiteSpace=wrap;strokeWidth=1;fontSize=18;" parent="113" vertex="1">
                    <mxGeometry x="17.090843432496076" y="32.13719663199606" width="21.363554290620094" height="13.531451213472016" as="geometry"/>
                </mxCell>
                <mxCell id="100" style="vsdxID=50;fillColor=#2d5967;gradientColor=none;shape=stencil(lZLdDoIwDIWfZrdL17KA14jvQcKQRWRkgD9v7+ZiBAwgd+36na5tDqO0q/JWMYSut+ai7rroK0ZHhqibSlndu4hRxigtjVVna4amCHmbe9JHV3PzHR5BJwC8BuEZ8gh4It4vp4DXuhnhSBxojyASHOVEIJAn8bKAXHn6AyzD09nlCvnb9rP5n2MnMYddh5EHDit7zg+/E984+ybugq8lSl3XwVHj+txC7inYj7IX);strokeColor=none;spacingTop=-3;spacingBottom=-3;spacingLeft=-3;spacingRight=-3;points=[];labelBackgroundColor=none;rounded=0;html=1;whiteSpace=wrap;strokeWidth=1;fontSize=18;" parent="113" vertex="1">
                    <mxGeometry x="41.01802423799058" y="32.13719663199606" width="21.363554290620094" height="13.531451213472016" as="geometry"/>
                </mxCell>
                <mxCell id="112" value="" style="group" parent="43" vertex="1" connectable="0">
                    <mxGeometry x="-67.74403446562857" y="296.15999999999997" width="139.6251092039673" height="120.67000000000007" as="geometry"/>
                </mxCell>
                <mxCell id="61" value="&lt;div style=&quot;font-size: 1px&quot;&gt;&lt;p style=&quot;align:center;margin-left:0;margin-right:0;margin-top:0px;margin-bottom:0px;text-indent:0;valign:middle;direction:ltr;&quot;&gt;&lt;font style=&quot;font-size:16.93px;font-family:Oracle Sans;color:#000000;direction:ltr;letter-spacing:0px;line-height:120%;opacity:1&quot;&gt;Dynamic Routing Gateway&lt;br/&gt;&lt;/font&gt;&lt;/p&gt;&lt;/div&gt;" style="verticalAlign=middle;align=center;vsdxID=40;fillColor=none;gradientColor=none;shape=stencil(nZBLDoAgDERP0z3SIyjew0SURgSD+Lu9kMZoXLhwN9O+tukAlrNpJg1SzDH4QW/URgNYgZTkjA4UkwJUgGXng+6DX1zLfmoymdXo17xh5zmRJ6Q42BWCfc2oJfdAr+Yv+AP9Cb7OJ3H/2JG1HNGz/84klThPVCc=);strokeColor=none;spacingTop=-3;spacingBottom=-3;spacingLeft=-3;spacingRight=-3;points=[];labelBackgroundColor=none;rounded=0;html=1;whiteSpace=wrap;strokeWidth=1;fontSize=34;" parent="112" vertex="1">
                    <mxGeometry y="84.67000000000007" width="139.6251092039673" height="36" as="geometry"/>
                </mxCell>
                <mxCell id="54" style="vsdxID=32;fillColor=none;gradientColor=none;strokeColor=none;spacingTop=-3;spacingBottom=-3;spacingLeft=-3;spacingRight=-3;points=[];labelBackgroundColor=none;rounded=0;html=1;whiteSpace=wrap;strokeWidth=1;fontSize=34;" parent="112" vertex="1">
                    <mxGeometry x="30.748551826918153" width="73.94959487469379" height="69" as="geometry"/>
                </mxCell>
                <mxCell id="55" style="vsdxID=33;fillColor=#FFFFFF;gradientColor=none;shape=stencil(jVLbDoIwDP2avZKtDRKfEf/DyJBFBDJA4e9lKYatBMNbL+fs9HQVmHblrdUCZNfb5qk/Ju9LgRcBYOpSW9PPkcBMYFo0Vj9sM9Q55e3NIV30at7uhZF4sXQUkBOlSlJ+Jex9sARW1E6S6KQWggoZcgRWmGBDGpFjMBhjR3aFLwWACM+hrD/aUpKhaMw0/0p6Cj9R5pO59EfCEHHII3PoL22rMPFd73lk/1mZ+vDfz8F6NIWpKro5v8+PbC7RgWL2BQ==);strokeColor=none;spacingTop=-3;spacingBottom=-3;spacingLeft=-3;spacingRight=-3;points=[];labelBackgroundColor=none;rounded=0;html=1;whiteSpace=wrap;strokeWidth=1;fontSize=34;" parent="54" vertex="1">
                    <mxGeometry x="0.8699952338199269" y="0.8117647058823529" width="71.33960917323402" height="66.56470588235294" as="geometry"/>
                </mxCell>
                <mxCell id="56" style="vsdxID=34;fillColor=#FFFFFF;gradientColor=none;shape=stencil(nVbLctswDPwaXTEEwRfOafIfmcSpPXXtjOO0yd8HqkRKBEd025sME1otdrnkQHdv+8fX3WDN2/Vy/rH7fXi+7gf6Nlh7OO13l8NVnga6H+ju5XzZfb+c30/P0+/Xx3Hl+PTz/Gt8w8fU5w24NHZZ8zlVLFD4U3iY1j+9X6YGnDsYEs4dqFrMh50qIQHTvGgueUA7L6KpEgOEjD2X0ABhDz05cK5GRw+Oa3hesZpL8pHJ1/jswPganxBc7OFzhGBrfGfAaPwEPtT4jsFHhR8guhrfJ4i2i++AFX6IkGLL39b4Mmyr8BNBoho/2fyuDfwYwVKNnxhcK39S8jMBhxpfnKT1Zw8xdd1nwCv8UZIa3uEirC2zDgqeLDhFXz5ylnID3lJjfqHvbY2PAZzCl1lnR2Z8xKJIxo/+hvwBTBq0+qzUJyAlvthKm3+1iBaHdsFXLbkSwWANnsCy2nkejNr5GAHV6GVm2HWevIYV9whEivoyjQK/hBMVDznlOx16x8Ppn0LyVqiaHjMJkMA1M6NoISBqWlyzGivKTgnI94DRQVKKIkFUYZbaLMXF8tk8EJWgZHLgbaCbRk/iEq4Z3LQpqrcRMNbIkivYDRFqaEtgtbS9q8El+wIqcF+yrwzd5cYtI4t5lNyMTYSK5FZJLhmGirxYp1DJGZZuZNjoThWhaJThgpzDSnTmZhsHbhPU51DbOkBWdlrY6wRNoWGffMNeGoM6wEUjQz18OS1UgI+HldK+zKMEKOd7ySJ9WfO3+bl0ZB+G4oRycrt8AC67bbUlqcxC8Zat3N3qcTXQ7AOwauqBisE/6/3Xic4q2m7l5v8vloflDvtyOB6nK/D6f33nldJ0X6b7Lw==);strokeColor=none;spacingTop=-3;spacingBottom=-3;spacingLeft=-3;spacingRight=-3;points=[];labelBackgroundColor=none;rounded=0;html=1;whiteSpace=wrap;strokeWidth=1;fontSize=34;" parent="54" vertex="1">
                    <mxGeometry width="73.94959487469379" height="69" as="geometry"/>
                </mxCell>
                <mxCell id="57" style="vsdxID=35;fillColor=#2d5967;gradientColor=none;shape=stencil(lVbbchoxDP2afdVYlq/PafofmYYUpjRkCGnp31fbXctYBpO+7Rp7D9K5yBM9vG+f3jaTNe+n4+HH5vfu+bSd6Mtk7e51uznuTvw00eNEDy+H4+b78fDx+ry8vz3NO+enn4df8xfOyzlvwKX5lDV/lhXz7+3rsvnbx3HZjcuPzkDI63a83G/OdnklBMR1x7pkYT1ypnWBV+K6Z11KQH4EjA6SbYGRIOYWPNViCjaCty26g0gtOBnwcYRuIKcWnDIE24KbFtll8KlFRsjYIvsMmEbI1JUd0pWyvWvBY4SACtyDC6rprhy8gc5EkaI7o3zmgnKrKM+h1FXbbmop61JOYPIIf1YntfholOCCAVKk5wxGkR5y/VJB92CHrMcLOdXqvaI9ha765Lvq+WDwLT5zZGiEnyPgpLlPinvpRwFnSZGmXvZQ1aYd2k1OFONTbakV9qJtsSl0mmcl2P+1W2ZnuxafXeuV7LIp6hF8zKBKZypU2zlJhkmTDGjJi20LdGQvKcdxmWG6Jzmua1h4IHA65cCmFtyHmkZt9BTky1CnK6m+371+fgTcmxfZlfbcmhkoFKA+UjPE1lQu/Fqwri3MimVrhsXS+FtSjqBMnKx8RVyEXU9jb2LOWSWmEIohbyVYnYZlJYESsusChP3pYovtu5E5z+JxflV/lmmCkBQ4WjBKyrNM9eRKdRCQ9NUN4+ty0KK02Sg1M/EyFsRKUVmJJRSUlTyYoequjA6qFq1ZKYwKGeiVj1lAOrrBD1mPPP5cX7qeHFSjsbDBelKaTwmsmpv8J2lYPAdoz3xUmuf5V8QgxRu5SZyp3/XZ6TGfUZYPKJ0WfO5IbPEjSaRL+VaCXyyPMHR8dGB04hjxodwb+MP61uLqeL0dpV3g3YvT7gA/1Pv4y26/X67zl7/r+zsvLXd/evwL);strokeColor=none;spacingTop=-3;spacingBottom=-3;spacingLeft=-3;spacingRight=-3;points=[];labelBackgroundColor=none;rounded=0;html=1;whiteSpace=wrap;strokeWidth=1;fontSize=34;" parent="54" vertex="1">
                    <mxGeometry x="1.7399904676398539" y="1.6235294117647059" width="70.46961393941409" height="65.75294117647059" as="geometry"/>
                </mxCell>
                <mxCell id="58" style="vsdxID=36;fillColor=#2d5967;gradientColor=none;shape=stencil(rZPbDoIwDIafZrdNWTls16jvQcKQRWQE8PT2MhejuHBKvOu6fs2/dj+jtCuzRjGOXd+ak7rpvC8Z7Rjnui5Vq/shYrRnlBamVcfWXOrcnZvMVtrobK62w91xkYSAW4rjw2WEBB6+MgcHVLqeBQKEJJ4GRAJIY0AC0TQQII7LI6BoRtC4GqcrN7UNOMhki+wQQYgtg/GBhdH7kgRCLNY+WIQQr5/jewurVrTQ2v8CC8L/8Cs9YAg+Jih0VTkPfd//mmZIOcPR/gk=);strokeColor=none;spacingTop=-3;spacingBottom=-3;spacingLeft=-3;spacingRight=-3;points=[];labelBackgroundColor=none;rounded=0;html=1;whiteSpace=wrap;strokeWidth=1;fontSize=34;" parent="54" vertex="1">
                    <mxGeometry x="28.70984271605759" y="9.741176470588236" width="15.659914208758686" height="47.89411764705882" as="geometry"/>
                </mxCell>
                <mxCell id="59" style="vsdxID=37;fillColor=#2d5967;gradientColor=none;shape=stencil(nZLLDoIwEEW/pttmmIota8T/IKFII1JSio+/t7VRQQIEd/M4dzKdXsLSrspbSRA6a/RZ3lRhK8IOBFE1lTTKuoiwjLC01EaejO6bIuRt7kkfXfTVT7gH3Z5TTLwK4REq8MqOAa5VM4BjQfkYjpAmfF7AOYWxYAdUiHkB/A/HCY1wyyorguljhRvB5gXTU0awcMx387POArvpl1ZgF3zNUKq6Dl4a9n/N40rBeCx7Ag==);strokeColor=none;spacingTop=-3;spacingBottom=-3;spacingLeft=-3;spacingRight=-3;points=[];labelBackgroundColor=none;rounded=0;html=1;whiteSpace=wrap;strokeWidth=1;fontSize=34;" parent="54" vertex="1">
                    <mxGeometry x="11.309938039659052" y="26.788235294117648" width="23.48987131313803" height="14.611764705882353" as="geometry"/>
                </mxCell>
                <mxCell id="60" style="vsdxID=38;fillColor=#2d5967;gradientColor=none;shape=stencil(nZLdDoMgDIWfhltSWo167dx7mIiTzIlB3c/bD0aW6Qzu5+5QzteSchjlQ1P2kiEMo9FHeVHV2DDaMUTVNdKo0SpGBaO81kYejJ66yp/70jmdOumz63D1HCLPhKMQbr4SAU/TR2XvgVZ1MyASHJeAsC2SMEDIkyUAYTMsjPGGc91WwIZ9/ew04UBhYL2YOOMCw8Bz/J/2D2v/+Z++AKx4xaJWbetTNb9/j5Et+QhScQc=);strokeColor=none;spacingTop=-3;spacingBottom=-3;spacingLeft=-3;spacingRight=-3;points=[];labelBackgroundColor=none;rounded=0;html=1;whiteSpace=wrap;strokeWidth=1;fontSize=34;" parent="54" vertex="1">
                    <mxGeometry x="38.27979028807679" y="26.788235294117648" width="23.48987131313803" height="14.611764705882353" as="geometry"/>
                </mxCell>
                <mxCell id="102" style="vsdxID=69;fillColor=none;gradientColor=none;strokeColor=none;spacingTop=-3;spacingBottom=-3;spacingLeft=-3;spacingRight=-3;points=[];labelBackgroundColor=none;rounded=0;html=1;whiteSpace=wrap;strokeWidth=1;fontSize=18;" parent="43" vertex="1">
                    <mxGeometry x="-35.68197235212498" y="469.00471025260026" width="75.5009849769601" height="81.18870728083209" as="geometry"/>
                </mxCell>
                <mxCell id="103" style="vsdxID=70;fillColor=#FFFFFF;gradientColor=none;shape=stencil(pVnbchs3DP0avWJIgtfnNPmPTOLUnrp2xnFa6++DrZbE8qwWqidv0goQQBA4OMCe+MOP+8/f707B/Xh9ef7r7t+Hr6/3J/7jFMLD0/3dy8OrfDrxxxN/+Pb8cvfny/PPp6+X798/L5LLp7+f/1n+4e2ilxy5tGgFd7488c799/3TRfzLz5eLvL/8HCvFVd7PCu4trCKZSl5l1ketUeNVilepRN6vUjykSt0af3x42vgaI3mefL2lwOQTKuRsHi+Qb/P5VEdP6CmU3QljhBM64rg74ap4YJ/lb/zOvp/Nc6UUwHylWmfzXCgxmK+U23G8OFOqc7zktouhkKhEVPBmgNmTwwNmavMBQ1bX+wETOYhvCBTxgIFyOvY3eL2RVcFTi4aCXGFFBfbHCl4i7GcFR96w4AvlOalrIzZi7jPV+Qy19no7iLmoBJ5jLjqhzkH3SV1fH9VCpc1BFykX5qCLVDCq0EvZzjGsmWI1HWZidFhSDfwNuyqocQcz3lOBJBEplyzzEojZeJFSSmBdb2F9ktuIXzfuqEGssiCHeVdutpwC1oYkLECP4GKa7Ur5lNmugIH3lt1CEHCp7e58N13JAa5zpAq2BYgA1pmp8nF+tB6Rnh4iH8z0kGYCF8Shd6URJkcZ4iTQkwAjJTsAodn1E11P5oDJzO5GNolKBXflBIz+MqU2+yuhzAB5UkvYUuTmLASTeg0zIImCt6sPvc2EyZ8HLgxn0y4TttDGQypYzlbiORdCpGw7q6Ec/jI1wDapRGzYIsXgsNSWh7qRHlOs/uA7Kp2HPLPl7/KHBfz1I1Xf1LmKAZbGWcDfpL2Ux0FjM+0rURgETugEZKOUoAN4k9vEBiygMq6LR2a4aNkX7oLm00Dowa+cXoR2p5hn88LCOiqftTsFo3eKRpnv64bCAptzsxXEsNr5wqfndu6OhXPopft//1269nvcF3ngO7cUGlWUj9k4waZi9DYN/JQjJ5g3cs/r6wpRuctQiEY7yWmgpiqYEJKLtlQ/kj0C5y+uQ5fmZB2o0nOy7DmpIFQIx/4W1oY5FKqJIUW6AAwpUvcwJBTlQmdFQQY6V7SsNhCSDTpXMjJcQaZgYk5RGrnBvAaYUyo14J9h0HmlF06RqTs8kPzAfmVNum4/9UMqu8nj0aYDR6B0CzuHgAmviCankxGAYebhsGOUMlkg5goMR7gwkSpIWWIfPa/zq6CD9lBoZsBEpezpYAWUbhL3AA4LMQjgMA9isCGj2aiIFpEFSNOItsNxeDccboT+pjHznPeNZvg7Bo2z9hlnxTcjJYyhE+Ujd/PouN3dGHYFsczFUBBRwWL4Wzq8qMOxX991hwuO+bGf+cjfonSk+7u5ad1BYNeOZZ8PdYeQsZokSzTS3GRioxhMh6smXZ+knLJp3dmM5df6KMlchwnR9H7XR4lvTFNjJ9atZzdWUZtwFUhH6UQB8E7SMUP5SMcoJt4uOwocnwePVbxjTYPu0thVaIPgvjLSJQum1w7vgzYVP47B2KA2XmqFFjj/0nZxTZj7ju46AWi6fhwKbHQ0UXANFaw1Us7YsqVATAtJgzgUigGBwnoSWJDh22YxGx6hVYBLnszaDDQP4c7zlcXaqMFDHrhbBFpD/0I0w6zQ15xHS5kN79hsZuF8UpkMTbTpuqAfcLv11ipvxpXf3JO/U3zewi8NA8RvDDKsk99Q8EZCSUuocwb62AfB6wpZc2AoFGMUEIX8uwq4HAOFd0fptgK8DUlKrDVKVloUfCWx7EfticzvLi4YFycJHcN7onRFwaYDopB/XyEbS/H3h/W2gnzQd1rfHh4fL6/Etr/jOzB5dHl/xh9/AQ==);strokeColor=none;spacingTop=-3;spacingBottom=-3;spacingLeft=-3;spacingRight=-3;points=[];labelBackgroundColor=none;rounded=0;html=1;whiteSpace=wrap;strokeWidth=1;fontSize=18;" parent="102" vertex="1">
                    <mxGeometry x="1.0342600681775356" y="0.9665322295337153" width="73.43246484060502" height="79.25564282176465" as="geometry"/>
                </mxCell>
                <mxCell id="104" style="vsdxID=71;fillColor=#FFFFFF;gradientColor=none;shape=stencil(lVvbdh01DP2avHr5fnmG8h9dUGgWpe1KW0j+HpkcS56tGR3yVoIUaWx5a+uSh/TTt4/vv354iP7b96cvf3745/G37x8f0s8PMT5+/vjh6fE7/eshvXtIP/3+5enDH09ffnz+7fW/v76fkvNff335e/6G51e94l2oUyv6l9efJJfyfz/45VX+0+PnXT673g7yzeVgyBfnM8iXci1fPf7+EE2F0l1IR4XsRjQ9ChEtJOsTogvhoDBcf4t4aC6MXeHXH0+vdxBuKsn5cVMJqOOfIx+97zepqKWSPvDEUimZ9ovryvxNRcxXV5oyXyKYbyt8dvPVuo/BpuS8ejf9HW7gefWjtxRHtYC3nUN9eVuDix287c48K1IZAW27XMB8dD0o8zWA+bRCezdvfnqtrlYwP1yFu6pDpG4/it61fDTf6GWFo/kY1+O4sN+Si+Von3RyO9onqQHm6UAKmM98IGyefvvh9I+h0gqCFSmUYPpbXYRQiZkRg/2lqIVoIakGT6tRaAxwuLhs3lcP/GvYPr0HOK9OqJqO9pPng172O0FtOtpPyQUDHEmjjMOBkUIyL7h3eY63H6WssKgP5+HAUmEQY4eHa+BvWS/31N/hnYdsVFdwXfhLKhX9bQ7udwQXADpTXyfH7pIUumv5Sk/lmKkSfa4ZDKSCvmbPN8TOJkHw249ycBmAlqQwGHKEYFD2k4RDYJ1clf0G4EFS+BhIqsNjyBSMpvmssINUBkAnSRW4q5zXwYr5vHKEmC/rdK/td8hzpDPw8zd+sOwTiDSwX1wE8CKpYl9/cSWDfXqgGKuFP5btd0HYZb86j9c/XM6m/U0nsE7F79+kIkv1+/aJSnr7+zUWF0rAWdnP8P1EqXJQ9iuY5+C+Mk9nfbROuTwDb6DTr5C6KJmqxxdUJqBEk21gbYrk9SS/eQGrdxnsE4oGOH3K3Etx2SdsGQZvJ414RFaloFJnUM91aIebV9A6oQGoBp1hAFo40aBdO1w7Fg6kYGaCKmSY/UVaVlWenw8ZWWHh5/Yiz73YtDAraJ0PGaCdpFJU9gFZiRU2vNy60u2V+SRFh7w2zNrESj2ar8JdhRQH/Py6qNqVfS8fJvYbPK7J27OyP+BxzYIAoJWerjcfFxUnKlbpuQO0EUQEtN+YeT1vOIbnT1Km/YnQVdnvAO2UIYYy3+BtU0rCCoqkqkGLs7y3F1awUwEl9I73xTrib1BVDElFgGKiMF35603zwpT2cOnAiomiISuWQGTzxPY6nhcF9fVxEaVMAIX0vExoSUExh41MLH9jE3onULjIxPKXSpaGz8uvT7iwP+sivC6vmAPVWAwckaUwd5AURDclmDvmg6vw+aSzakc27xVxoWJioHkv9CqxlM3xqcJlQJZsOiBcSCpg6mxMZZd9KrAbEBeSSiZxIZ1Y0T4YbxJUy3jlh8zGqzZeVjhcGa8OkJ1UIAlPGTz6ourHUKR1Ida9CexhY8PLfBY2vOxnlVcntwHOHpIq+DtVRDYJ4fSwzLeqSFvmHLZxNo84IY9zS3TVjHtsi1ECSQFtY6eFABz5Ij0DgEjCNrtxMM7KWgTo4NW5p6qshyDMU+rwbPQNSINrsJsCdyiuAiVKQcR9A/A2Ssm4vBVg26Kk4GFFAAjwdmNVjNfVftGZ4eNFMH6lfXa4qMtNXhqj8qgTAPq8PaN1QGARjw7PCDFDkVQGQBDpJHS4O2jR0gNq8BAmmmIbqy36eI3ADUrXuDE3QeCBfb+q2o6UASLUbpF7y9cZCPltJDTTCdADX4lFgXAEGJidPiO6ZosRLivfYVckUPCyEhOuZ3ENe7Tc/hRnK/ak6COt2CKFfmz5KQXFbrxU3IHvCNkNIUAC8kz3DSmGYC3B3VJM2nU5kcEK3J2b8AKznm97a6h7uFqitfywZPrQDaSbRPiIdEpBcefE/dttXNKh1MxZOMs2LoFaj3JFHMrhW7xd2Zdu1Ga/QHTlxrH0ojkK2+9nB5asYqMjdpnTsP0DOQtYA8Z5hXAh2exsUPiUjBaK8aC1Sw0ad0qe6cWSz4ZDpyPV+kb5t/7+g/y9Ea+Halrf8PF7g7OOM3EhchMnRmu9uCTpcskbeJbUCCPwiPhcoQicSDwYDp1YyIvLXEVcPn5x4FbPFcZ1BoiXgDp7wRuBzhG5UES2STUmFMTu/M+xjx7xBiBo9JQjpKSTqeWceeHczkN7DHJSEcRihWo6PId0OGcMwhUlYWKvmqQ6gBz9aGDOj86ICFJIRwyapYBJf+mDuCMrKV/x9aG6u1Gm+luJWqGjMTmKxdebtHOQ91wTShwGnDAqCiyMCOFqe2GpIqItGD93uCgGbIOq5vhEf71NmbdyUygzVq66JqFXkCBNk1SACErcWbmqoMYRI2blYJ1IwK4UKQy7M+BVW4aKmAZXqDk5lVMFiNNQNCAlKFBh+iklJctX4zw6tihTvjMt6qsnJx+3TZjX9EFxUqp/1ZaHJASB0GjXG1JILNaV1aTMHy3PLR54yV4NKefIyQS+sB66TKmGaiQXNSJrzSGKBFVHd27TXIUg9w9ZIZt5LWwrJNKdUoV/knGZNMewMRmyemQk1Q3mpEGhc1K7UugVFaqNIkX3HrvDdaNQJVql91mx96iKuTnbMxInLBh0RqarLJAzKjSD6YUucXR71ncSuZei4qYQ7GrUu+MnWJt5s8gfIG3WIjHKpOimkO5MHggMMqS9UdT6VtLV5mjSbZEmGhKx0c1SgsAJXhgpdONIJlDlNyqUZiuccFOM8DGYHPCRDIejsyGzexkFwQsmoWx2lnJQfUPSKZCmZ1WIg1vusYn5JG1wsd+M+MxJ8Ov/KWShTf9Pobg7Bk7qe+y1kQ4yszlxxA1D74/nMSeZuF94k7neRE1Yp/BvlUVQXK0cjDP7FBdzH0lZy2o1qM5CN+GfFHpCBQvvasTCTSmcDdbxMviNy2A9SXkXWSrD65g7Ajip5Irv3OGCvH5Ola2tieoyylcDkKoM6UWhmAmxNuEVMjrGTnTtipmNphYEz9ZCqtVOqgPbdSRfjCtvHps9owIJOtt7QTwsPMBh5hnV0GkuiRy/ryXcUhoZGv3gbpK3f6GgeHJa69X7bBgp2NxYwgldVKsXoyiq3HhD72pQ1dUsv8qi6jNiE0/o9CBlJhQoIyceXZ/WrsDy9khvZja43BL0DmJX75mwVK1AdrzdPO6sI4+uNzCHdGWjlpIVPNy7ODXvjeDaFDiH2F2NoZeB8zZQEndxGThXlRDmqgvEVi72svtoqsAllYKX1fRpFYex1YTqinXztBqSY8r999zFWflczcHTqrL/IexmoL9VtVRyhFrhZL8yY9UaZBVP7Ae0H2RVytgvDebC3q7BCvZUcQImvgZpVu8LuTjklhWxbSG4wiSFiK2NXFkme8KFcbeBpLB4JSlsyu67zdJksDc7hkbuWSBgeOt1cCo88I8pqFLKkEmtUn+oP1JKGZrkytsgfXvpKqvtZS9Nt63dBNElG0fibYBCHPpHA7v6pGBvDfV6NjJHhyl94pJZlD0Zdtirpby5UGLCQRt6Zh3VklvbBvsyxsYWVqvipXS1ralGqzi1ml1tY6rRKm4I31PYyt+lYJ5Hkf6OdM3xOLIC89lah+sgKa9HEFZxsZO6GyPpzizDiDl6YP6zX3J0t3a18zY3NQDMq4xnL6e8wHMzJp+Af12gFFJ5k0LE25u9fsulbXmYFbxlQXW05wKa0Z0jSjjKmxSi/KXKTcGe3NEp4UdHs+F1YsGb+wRUHI+jhWIWbCQPFV5ZHfxzef3XpWaBdzL8fZOwOSm+L0//kL88/v3x06fXP1ze/z/+pTL96PWvnNO7fwE=);strokeColor=none;spacingTop=-3;spacingBottom=-3;spacingLeft=-3;spacingRight=-3;points=[];labelBackgroundColor=none;rounded=0;html=1;whiteSpace=wrap;strokeWidth=1;fontSize=18;" parent="102" vertex="1">
                    <mxGeometry width="75.5009849769601" height="81.18870728083209" as="geometry"/>
                </mxCell>
                <mxCell id="105" style="vsdxID=72;fillColor=#2d5967;gradientColor=none;shape=stencil(lZbbcuMgDIafxrcakDhe9/AenTbdeDZNOm56evuSBQySN05zZ8syH5J+CQa6eds+vG4GVG/H6fB38zk+HbcD3Q6I4367mcZjehrobqCb58O0+TMd3vdP+f314eR5eno5fJxW+Mr/WQvanP5C9Z0t6t/bfXbejftVZwM69v6P71NeXefvzoGj8kcxWbDF8oXZ4j3oUJyKSWtAX7wom4JpSxUTKkCzho8IKnA8RkDN+dFCcJxvFHjD+ckLOd4iGLuKN2Atx7uUMcfxIYLldG/nhMzRa1CR4wNdiN4juMjxMeU1crzTYEX0KVQv+FZxeHM5A6cAxgh4t2whoQfSAt5tscB0gKivDF4rEKnvs4pVi0akvq8PVY2H4bq6m9YmeqmnWmSIyNm9NGvkFshfKXpECMjxfTsVGFFbec7G3Jk1dNM6Y84G73g+Ifof/jNOFiLBeV/zVoFEolLATgjUL3aqscmtmnwV0tkyochTWlhZTlecTBGc5ehue51AVpsjBSnILhVa9CUE0RlpTpJoy6SPKMeCA6RVfaQ+EElPnamkPvxciHkoK7U+FKrDucMAW6a0XLLGmAREHNtvrp0FSg6ES2FHqsptE6FLaIUFcOIs6kpTh19sufl1yWukFd4raTl3v3GpyBqpbwP7t1L33Y6raXEOOw9e5L7rxhpodweoDXB+Hly4XqSHdjF5Hne7fK/pv8uLTDLlSxDd/QA=);strokeColor=none;spacingTop=-3;spacingBottom=-3;spacingLeft=-3;spacingRight=-3;points=[];labelBackgroundColor=none;rounded=0;html=1;whiteSpace=wrap;strokeWidth=1;fontSize=18;" parent="102" vertex="1">
                    <mxGeometry x="2.068520136355071" y="13.531451213472014" width="71.36394470424996" height="65.72419160829264" as="geometry"/>
                </mxCell>
                <mxCell id="106" style="vsdxID=73;fillColor=#2d5967;gradientColor=none;shape=stencil(pZNNDoMgEIVPw3aCQAusrb2HiVhJrRi1f7cvlDS1GDGkuwG/eXk8ZxDNx6bsFSJ4nAZzVnddTQ2iB0SI7ho16MlWiBaI5rUZ1Gkw167y5750pKsu5uYUHr6PYRCuieCnv8gwfp+Pnm51N6N3EjD/B+ewZ+s8JyBYIB9tEIEZCjxbpz9eZ+JCprhhIEWUD17LQETsMAnyVz8SpU2OywRxy2OaYD4pmcwmk5T80s3Gj12MZXxw0qZ4i7bFd11q3bZ+2+bfw/WyV341afEC);strokeColor=none;spacingTop=-3;spacingBottom=-3;spacingLeft=-3;spacingRight=-3;points=[];labelBackgroundColor=none;rounded=0;html=1;whiteSpace=wrap;strokeWidth=1;fontSize=18;" parent="102" vertex="1">
                    <mxGeometry x="28.959281908970997" y="1.9330644590674306" width="15.513901022663033" height="68.62378829689379" as="geometry"/>
                </mxCell>
                <mxCell id="107" style="vsdxID=74;fillColor=#2d5967;gradientColor=none;shape=stencil(pZLdDoMgDIWfhlsCrZt47dx7mIiTzIlB9vf2g5Fl6uJfdldKv5P25BBMuypvJQHWWaPP8q4KWxE8EADVVNIo6yqCGcG01EaejL42RXi3uZ/01UXfvMIjcBGngJ4C9gwdEVMG784xALVqegAATYbALqEcpwHO2D/jEaNCbFlnAfg9mDuJGQCBxjAA2PSwoNFQHOfdHFmzRXm/de2PsyttWcjBCsAV39iVqq5Davv/45i6Vog4Zi8=);strokeColor=none;spacingTop=-3;spacingBottom=-3;spacingLeft=-3;spacingRight=-3;points=[];labelBackgroundColor=none;rounded=0;html=1;whiteSpace=wrap;strokeWidth=1;fontSize=18;" parent="102" vertex="1">
                    <mxGeometry x="39.30188259074635" y="38.661289181348614" width="23.787981568083318" height="14.49798344300573" as="geometry"/>
                </mxCell>
                <mxCell id="108" style="vsdxID=75;fillColor=#2d5967;gradientColor=none;shape=stencil(nZJNDoMgEIVPw5aMjAqsrb2HiVhJrRikf7evhLTVNmrtbhi+eXkMj2DW10WnCIPeWXNUV126muCOMKbbWlnthopgTjCrjFUHa85tGc5d4UlfnczFK9zCXCKo8EMM7qERMSpDZx/4RrcjnvMJHQMVCzT8DyeSRvizjxX665WCU2DzfMopw+laAOZxGdFYTvB0eYtPtZf9TeK41fyC+tb/X+eH4h22SjdNyOr4/jOcQysEG/MH);strokeColor=none;spacingTop=-3;spacingBottom=-3;spacingLeft=-3;spacingRight=-3;points=[];labelBackgroundColor=none;rounded=0;html=1;whiteSpace=wrap;strokeWidth=1;fontSize=18;" parent="102" vertex="1">
                    <mxGeometry x="11.376860749952892" y="38.661289181348614" width="23.787981568083318" height="14.49798344300573" as="geometry"/>
                </mxCell>
                <mxCell id="109" value="&lt;div style=&quot;font-size: 1px&quot;&gt;&lt;p style=&quot;align:center;margin-left:0;margin-right:0;margin-top:0px;margin-bottom:0px;text-indent:0;valign:middle;direction:ltr;&quot;&gt;&lt;font style=&quot;font-size:16.93px;font-family:Oracle Sans;color:#000000;direction:ltr;letter-spacing:0px;line-height:120%;opacity:1&quot;&gt;NAT&lt;/font&gt;&lt;font style=&quot;font-size:16.93px;font-family:Oracle Sans;color:#000000;direction:ltr;letter-spacing:0px;line-height:120%;opacity:1&quot;&gt; Gateway&lt;/font&gt;&lt;font style=&quot;font-size:16.93px;font-family:Oracle Sans;color:#000000;direction:ltr;letter-spacing:0px;line-height:120%;opacity:1&quot;&gt;&lt;br/&gt;&lt;/font&gt;&lt;/p&gt;&lt;/div&gt;" style="verticalAlign=middle;align=center;vsdxID=77;fillColor=none;gradientColor=none;shape=stencil(nZBLDoAgDERP0z3SIyjew0SURgSD+Lu9kMZoXLhwN9O+tukAlrNpJg1SzDH4QW/URgNYgZTkjA4UkwJUgGXng+6DX1zLfmoymdXo17xh5zmRJ6Q42BWCfc2oJfdAr+Yv+AP9Cb7OJ3H/2JG1HNGz/84klThPVCc=);strokeColor=none;spacingTop=-3;spacingBottom=-3;spacingLeft=-3;spacingRight=-3;points=[];labelBackgroundColor=none;rounded=0;html=1;whiteSpace=wrap;strokeWidth=1;fontSize=18;" parent="43" vertex="1">
                    <mxGeometry x="-33.09632218168114" y="545.29" width="70.32968463607241" height="49" as="geometry"/>
                </mxCell>
                <mxCell id="83" value="&lt;div style=&quot;font-size: 1px&quot;&gt;&lt;p style=&quot;align:center;margin-left:0;margin-right:0;margin-top:0px;margin-bottom:0px;text-indent:0;valign:middle;direction:ltr;&quot;&gt;&lt;font style=&quot;font-size:16.93px;font-family:Oracle Sans;color:#000000;direction:ltr;letter-spacing:0px;line-height:120%;opacity:1&quot;&gt;Internet Gateway&lt;br&gt;&lt;/font&gt;&lt;/p&gt;&lt;/div&gt;" style="verticalAlign=middle;align=center;vsdxID=40;fillColor=none;gradientColor=none;shape=stencil(nZBLDoAgDERP0z3SIyjew0SURgSD+Lu9kMZoXLhwN9O+tukAlrNpJg1SzDH4QW/URgNYgZTkjA4UkwJUgGXng+6DX1zLfmoymdXo17xh5zmRJ6Q42BWCfc2oJfdAr+Yv+AP9Cb7OJ3H/2JG1HNGz/84klThPVCc=);strokeColor=none;spacingTop=-3;spacingBottom=-3;spacingLeft=-3;spacingRight=-3;points=[];labelBackgroundColor=none;rounded=0;html=1;whiteSpace=wrap;strokeWidth=1;fontSize=34;" parent="1" vertex="1">
                    <mxGeometry x="1610.73" y="850" width="135" height="36" as="geometry"/>
                </mxCell>
                <mxCell id="84" style="edgeStyle=none;html=1;labelBackgroundColor=none;endArrow=none;endFill=0;strokeWidth=2;fontFamily=Verdana;fontSize=24;fontColor=#6881B3;exitX=0.032;exitY=0.002;exitDx=0;exitDy=0;exitPerimeter=0;entryX=0.5;entryY=1;entryDx=0;entryDy=0;entryPerimeter=0;" parent="1" source="44" target="7c3789c024ecab99-53" edge="1">
                    <mxGeometry relative="1" as="geometry">
                        <mxPoint x="1340" y="430" as="targetPoint"/>
                        <mxPoint x="1275.3199755532646" y="619.8102917142826" as="sourcePoint"/>
                    </mxGeometry>
                </mxCell>
                <mxCell id="101" value="&lt;div style=&quot;font-size: 1px&quot;&gt;&lt;p style=&quot;align:center;margin-left:0;margin-right:0;margin-top:0px;margin-bottom:0px;text-indent:0;valign:middle;direction:ltr;&quot;&gt;&lt;font style=&quot;font-size:16.93px;font-family:Oracle Sans;color:#000000;direction:ltr;letter-spacing:0px;line-height:120%;opacity:1&quot;&gt;Service&lt;/font&gt;&lt;font style=&quot;font-size:16.93px;font-family:Oracle Sans;color:#000000;direction:ltr;letter-spacing:0px;line-height:120%;opacity:1&quot;&gt; Gateway&lt;/font&gt;&lt;font style=&quot;font-size:16.93px;font-family:Oracle Sans;color:#000000;direction:ltr;letter-spacing:0px;line-height:120%;opacity:1&quot;&gt;&lt;br/&gt;&lt;/font&gt;&lt;/p&gt;&lt;/div&gt;" style="verticalAlign=middle;align=center;vsdxID=52;fillColor=none;gradientColor=none;shape=stencil(nZBLDoAgDERP0z3SIyjew0SURgSD+Lu9kMZoXLhwN9O+tukAlrNpJg1SzDH4QW/URgNYgZTkjA4UkwJUgGXng+6DX1zLfmoymdXo17xh5zmRJ6Q42BWCfc2oJfdAr+Yv+AP9Cb7OJ3H/2JG1HNGz/84klThPVCc=);strokeColor=none;spacingTop=-3;spacingBottom=-3;spacingLeft=-3;spacingRight=-3;points=[];labelBackgroundColor=none;rounded=0;html=1;whiteSpace=wrap;strokeWidth=1;fontSize=18;container=0;" parent="1" vertex="1">
                    <mxGeometry x="1640" y="1341.27" width="75" height="36" as="geometry"/>
                </mxCell>
            </root>
        </mxGraphModel>
    </diagram>
</mxfile>